<?xml version="1.0" encoding="utf-8"?>
<!-- Generator: Adobe Illustrator 22.0.1, SVG Export Plug-In . SVG Version: 6.00 Build 0)  -->
<svg version="1.1" id="レイヤー_1" xmlns="http://www.w3.org/2000/svg" xmlns:xlink="http://www.w3.org/1999/xlink" x="0px"
	 y="0px" viewBox="0 0 500.2 55.9" style="enable-background:new 0 0 500.2 55.9;" xml:space="preserve">
<style type="text/css">
	.st0{enable-background:new    ;}
	.st1{fill:#42280F;}
</style>
<title>nazomorit</title>
<g id="レイヤー_2_1_">
	<g id="レイヤー_2-2">
		<g class="st0">
			<path class="st1" d="M8,4.6c0.5,0,0.9,0,1.3,0.1c0.3,0,0.7,0.2,1,0.5c0.5,0.3,0.8,0.6,0.9,0.8c0.1,0.2,0.4,0.5,0.7,0.8
				c0.3,0.8,0.7,1.2,1.2,1.4c0.5,0.2,1,0.4,1.5,0.8c0.5,0.4,0.9,0.8,1.3,1.4c0.4,0.6,0.9,1.1,1.3,1.7c0.5,0.6,0.9,1.2,1.3,1.8
				c0.4,0.6,0.8,1,1.3,1.4c0.6,0.6,1.1,1.3,1.5,2c0.4,0.7,1,1.3,1.9,1.7c0.2,0.2,0.7,0.6,1.3,1.3c0.6,0.7,1.4,1.4,2.1,2.2
				c0.8,0.8,1.5,1.5,2.3,2.1c0.7,0.6,1.3,0.9,1.7,0.9c0.3,0,0.4-0.1,0.5-0.2c0.1-0.1,0.1-0.3,0.1-0.4s0-0.3-0.1-0.5
				c-0.1-0.2-0.1-0.3-0.1-0.4v-4.3c0-0.3,0.1-0.7,0.3-1.2c0.2-0.5,0.3-1,0.3-1.7V12c-0.2-0.1-0.4-0.3-0.6-0.6
				c-0.3-0.3-0.5-0.5-0.8-0.8c-0.3-0.3-0.5-0.5-0.8-0.8c-0.2-0.2-0.4-0.3-0.5-0.3h-1.1c-0.2,0-0.5-0.1-0.8-0.2
				c-0.3-0.1-0.6-0.3-0.9-0.5c-0.3-0.2-0.5-0.4-0.7-0.5c-0.2-0.2-0.3-0.3-0.3-0.4V6.2c0-0.4,0.1-0.7,0.3-0.9C25.7,5,26,4.9,26.2,4.8
				c0.3-0.1,0.6-0.2,0.9-0.2c0.3,0,0.6,0,0.8,0H29c0.3,0,0.6,0,1.1,0.1c0.4,0.1,0.9,0.1,1.4,0.2c0.5,0.1,0.9,0.1,1.4,0.2
				c0.4,0.1,0.8,0.1,1.2,0.1h7.9c0.8,0,1.5,0.2,2.1,0.5c0.7,0.3,1,0.9,1,1.7c0,0.3,0,0.6-0.1,0.8c0,0.2-0.2,0.5-0.4,0.8
				c-0.9,0.5-1.7,0.8-2.5,0.7c-0.8-0.1-1.6-0.1-2.4-0.1L38,10h-1c-0.3,0-0.6,0.2-0.8,0.7C36.1,11.1,36,11.5,36,12v2.2v0.5v3.4v2.7
				c0,0.2,0.1,0.6,0.2,1c0.2,0.5,0.2,0.8,0.2,1V26l-1,5.5c0,0.2,0,0.5,0.1,0.9c0.1,0.4,0.2,0.8,0.3,1.2c0.1,0.4,0.2,0.8,0.3,1.1
				c0.1,0.4,0.1,0.7,0.1,0.9c0,0.2,0,0.4,0,0.8c0,0.4-0.1,0.8-0.1,1.1s-0.2,0.7-0.3,1c-0.1,0.3-0.3,0.4-0.5,0.4c-0.2,0-0.4,0-0.8,0
				c-0.4,0-0.7,0-1.1-0.1c-0.4,0-0.7-0.1-1-0.2s-0.4-0.2-0.4-0.3c-0.5-0.5-1-1.2-1.3-1.9c-0.4-0.8-0.8-1.4-1.3-1.8
				c-0.4-0.6-0.8-1-1.2-1.4c-0.4-0.4-0.8-0.7-1.1-1.1c-0.4-0.3-0.7-0.7-1-1.1c-0.3-0.4-0.6-0.8-0.8-1.4c-0.4-0.9-1.1-1.9-1.9-2.7
				c-0.9-0.9-1.8-1.7-2.8-2.6c-1-0.9-1.9-1.8-2.9-2.7c-0.9-0.9-1.7-1.8-2.3-2.8c0-0.1-0.1-0.3-0.2-0.5c-0.1-0.2-0.3-0.5-0.5-0.7
				c-0.2-0.2-0.4-0.4-0.7-0.6c-0.2-0.2-0.5-0.3-0.8-0.3c-0.7,0-1.1,0.6-1.1,1.7v4.3V25l0.5,3.2c0,0.8,0,1.3-0.1,1.6
				s-0.1,0.7-0.1,1.3c0,0.7,0.2,1.3,0.7,1.6c0.4,0.4,1,0.6,1.6,0.8c0.6,0.2,1.3,0.3,2.1,0.4c0.7,0.1,1.4,0.2,2.1,0.4
				c0.6,0.2,1.2,0.4,1.6,0.7c0.4,0.3,0.7,0.8,0.7,1.4c0,0.3-0.1,0.5-0.3,0.5C20.9,37,20.7,37,20.4,37h-6.5l-3.6,0.5
				c-0.3-0.3-0.7-0.4-1.1-0.5S8.3,37,8,37H7c-0.8,0-1.4-0.1-1.8-0.3s-0.9-0.3-1.4-0.3H1.7L1.3,37H0.1c0-0.2,0-0.4,0-0.8
				c0-0.4,0-0.7,0-1.1C0,34.8,0,34.4,0,33.9c0-0.3,0.2-0.6,0.5-0.8c0.3-0.2,0.6-0.3,0.9-0.3c0.6,0,1,0,1.2,0c0.2,0,0.3,0,0.4,0
				c0.1,0,0.1,0,0.1,0c0,0,0.1,0,0.3,0c0.2,0,0.6,0,1.1,0c0.5,0,1.3,0,2.4,0c0.3,0,0.5-0.1,0.7-0.3C7.8,32.2,8,32,8.1,31.8
				c0.1-0.2,0.2-0.5,0.2-0.7c0-0.2,0.1-0.4,0.1-0.5c-0.1-0.2-0.1-0.3-0.2-0.5C8.1,29.9,8,29.6,8,29.3c0-0.6,0-1-0.1-1.4
				c-0.1-0.4-0.1-0.7-0.2-0.9c-0.1-0.3-0.2-0.5-0.2-0.7c-0.1-0.2-0.1-0.5-0.1-0.8c0-0.3,0-0.6,0.1-1c0.1-0.4,0.1-0.7,0.2-1
				c0.1-0.4,0.2-0.8,0.3-1.1v-3.8C8,18.3,8,18,8,17.7c-0.1-0.3-0.2-0.6-0.5-0.9c0-0.5,0.1-0.7,0.3-0.9c0.1-0.1,0.2-0.1,0.3-0.1
				c0-0.2-0.1-0.4-0.2-0.6c-0.1-0.3-0.2-0.5-0.4-0.8c-0.1-0.3-0.2-0.5-0.3-0.7C7,13.5,7,13.3,7,13.2c0-0.8-0.3-1.4-0.9-1.8
				c-0.6-0.4-1.3-0.8-2-1.2C3.3,9.8,2.6,9.3,2,8.8C1.4,8.3,1.1,7.6,1.1,6.7c0.2-0.4,0.3-0.7,0.5-1C1.7,5.4,1.9,5.1,2,4.9
				c0.2-0.2,0.4-0.3,0.7-0.3H8z"/>
		</g>
		<g class="st0">
			<path class="st1" d="M64.1,3c0.8,0,1.5,0.2,1.9,0.5c0.4,0.4,0.7,0.8,0.9,1.4c0.2,0.6,0.3,1.2,0.3,1.9c0.1,0.7,0.1,1.3,0.2,1.9
				v2.1c0.2,0.4,0.5,1,0.9,1.7c0.4,0.7,0.5,1.4,0.5,2.1V16c0,0.1,0.1,0.5,0.3,1c0.2,0.6,0.4,1.2,0.7,1.9c0.2,0.7,0.5,1.3,0.7,2
				c0.2,0.6,0.3,1.1,0.3,1.3c0,0.7,0.1,1.7,0.3,2.9c0.2,1.2,0.4,2.4,0.7,3.5c0.3,1.1,0.7,2.1,1.1,3c0.4,0.8,0.8,1.3,1.3,1.3
				c0.5,0,0.9,0.1,1.3,0.2c0.3,0.1,0.6,0.2,0.8,0.2c0.1,0,0.3,0,0.6,0.1c0.3,0,0.6,0.1,0.9,0.2c0.3,0.1,0.6,0.3,0.8,0.5
				s0.3,0.5,0.3,0.8c0,0.8-0.3,1.3-0.8,1.6c-0.5,0.3-1.2,0.5-1.9,0.5l-3.8-0.2h-1.6h-2.9h-1.3L65,36.8c-0.2,0-0.6,0-1.1-0.1
				c-0.5,0-0.8-0.2-0.8-0.5c0-0.5,0.2-1,0.7-1.3c0.5-0.3,1-0.6,1.7-0.9c0.5-0.2,1-0.4,1.3-0.6c0.4-0.2,0.5-0.6,0.5-1.1
				c0-0.1,0-0.4-0.1-0.9C67.1,31,67,30.5,66.9,30c-0.1-0.5-0.3-1-0.5-1.4c-0.2-0.4-0.3-0.6-0.5-0.6c-0.1-0.4-0.2-0.8-0.3-1.3
				s-0.1-0.9-0.2-1.2c-0.1-0.4-0.2-0.6-0.5-0.8c-0.2-0.2-0.5-0.2-0.9-0.2h-1.9c-0.1,0-0.3,0-0.7,0c-0.3,0-0.7,0-1,0.1
				c-0.3,0-0.7,0.1-1,0.1c-0.3,0.1-0.5,0.1-0.7,0.3c-0.5,0.2-0.7,0.6-0.6,1c0.1,0.4,0.1,0.9,0.1,1.4c-0.1,0.2-0.3,0.4-0.5,0.9
				c-0.2,0.4-0.4,0.9-0.7,1.4c-0.2,0.5-0.4,1-0.5,1.4c-0.2,0.4-0.2,0.7-0.2,0.8c0,0.5,0.1,0.8,0.4,1c0.2,0.2,0.5,0.4,0.8,0.5
				c0.3,0.2,0.6,0.4,0.8,0.7c0.2,0.3,0.4,0.8,0.4,1.5c0,0.2-0.1,0.4-0.2,0.5c-0.2,0.1-0.3,0.2-0.5,0.3c-0.2,0.1-0.4,0.1-0.6,0.1
				c-0.2,0-0.4,0-0.5,0c0,0.1,0,0.2-0.1,0.2c-0.1,0-0.2,0.1-0.3,0.1c-0.1,0-0.3-0.1-0.5-0.3c-0.2,0-0.4,0-0.6,0
				c-0.2,0-0.5,0-0.8-0.1l-1-0.1c-0.5,0-0.9,0.1-1.2,0.2c-0.3,0.1-0.7,0.2-1.2,0.2c-0.5,0-0.9,0-1.1,0.1c-0.2,0.1-0.4,0.1-0.5,0.2
				c-0.1,0.1-0.2,0.1-0.2,0.1c0,0-0.1,0.1-0.2,0.1c-0.2,0-0.5,0-1-0.1c-0.5,0-1-0.1-1.5-0.2c-0.5-0.1-0.9-0.2-1.3-0.4
				c-0.4-0.2-0.5-0.4-0.5-0.6c0-0.7,0.2-1.3,0.7-1.8c0.4-0.5,1-0.7,1.7-0.7l1.1-0.3c0.1,0,0.2-0.1,0.4-0.2c0.2-0.1,0.4-0.3,0.7-0.5
				c0.2-0.2,0.5-0.4,0.7-0.6c0.2-0.2,0.4-0.4,0.6-0.5c0.2-0.9,0.6-2,1.2-3.1c0.6-1.1,1.1-2.2,1.6-3.2c0.2-0.6,0.5-1.3,0.9-2
				c0.4-0.7,0.7-1.3,1-1.8c0.4-0.7,0.7-1.4,1-2.1c0.3-0.7,0.5-1.4,0.7-2.1s0.5-1.4,0.7-2.1c0.3-0.7,0.6-1.5,0.9-2.2
				c0.3-0.6,0.5-1.2,0.6-1.9c0.2-0.7,0.3-1.3,0.4-2.1C60,8,60.2,7.3,60.4,6.6c0.2-0.7,0.5-1.4,0.8-2.2C61.4,4.3,61.7,4,62,3.8
				c0.3-0.3,0.6-0.5,1.1-0.7H64.1z M63.4,13.5c-0.3,0-0.5,0.1-0.7,0.3c-0.2,0.2-0.4,0.5-0.5,0.8c-0.2,0.3-0.3,0.6-0.3,0.9
				c-0.1,0.3-0.1,0.5-0.1,0.6c0,0.3,0,0.6,0,0.8s0,0.3-0.1,0.5c0,0.1-0.1,0.3-0.1,0.5c-0.1,0.2-0.1,0.6-0.3,1.1v0.5
				c0,0.2,0.2,0.4,0.5,0.7s0.6,0.3,0.9,0.3c0.1,0,0.3,0,0.5,0c0.2,0,0.5,0,0.7-0.1c0.2,0,0.5-0.1,0.7-0.2c0.2-0.1,0.3-0.3,0.3-0.5
				c0-0.5-0.1-0.9-0.4-1.1c-0.3-0.3-0.4-0.5-0.4-0.8V15c0-0.2-0.1-0.6-0.2-1C63.7,13.7,63.6,13.5,63.4,13.5z"/>
		</g>
		<g class="st0">
			<path class="st1" d="M91.3,0c0.2,0,0.5,0.1,1.1,0.3C93,0.5,93.7,0.7,94.6,1c0.9,0.3,1.8,0.6,2.9,1c1,0.4,2.1,0.8,3.2,1.1
				c1,0.3,2,0.7,3,1c1,0.3,1.8,0.6,2.6,0.9c0.8,0.2,1.4,0.4,1.9,0.6c0.5,0.2,0.9,0.2,1,0.2c0.2,0,0.7-0.1,1.5-0.3
				c0.8-0.2,1.6-0.4,2.5-0.7c1-0.3,2.1-0.6,3.3-1c0.9,0,1.5,0.2,1.8,0.7c0.3,0.4,0.5,0.9,0.5,1.4c0,1.1-0.2,1.9-0.5,2.4
				c-0.3,0.5-0.7,0.9-1.3,1.1c-0.6,0.2-1.2,0.5-2,0.7c-0.8,0.2-1.6,0.6-2.6,1.2c-0.4,0.3-0.8,0.5-1.2,0.5c-0.4,0-0.8,0.1-1.1,0.1
				c-0.4,0-0.8,0-1.1,0.1c-0.4,0.1-0.7,0.2-1,0.5c-0.8,0.5-1.6,1.1-2.4,1.7c-0.8,0.6-1.6,1.1-2.3,1.7c-0.3,0.2-0.6,0.6-0.9,1
				c-0.3,0.5-0.7,0.8-1.2,1c-0.1,0.1-0.4,0.3-1,0.6c-0.5,0.3-1.2,0.7-1.9,1.1c-0.8,0.4-1.5,0.9-2.4,1.4c-0.8,0.5-1.6,1-2.3,1.4
				c-0.7,0.5-1.3,0.9-1.8,1.2s-0.7,0.6-0.7,0.7c0,0.3,0.3,0.5,0.9,0.8c0.6,0.2,1.2,0.6,1.8,1c0.6,0.4,1.2,0.8,1.5,1.3
				c0.4,0.4,0.6,0.6,0.8,0.6c0.7,0.6,1.4,1.2,2,1.9c0.7,0.7,1.3,1.5,2,2.2c0.6,0.8,1.3,1.5,1.8,2.3c0.6,0.8,1.1,1.5,1.7,2.1
				c0.9,1.4,1.8,2.9,2.9,4.4c1.1,1.5,2.1,2.9,3.1,4.3c0.2,0.3,0.6,0.6,1,0.9c0.4,0.3,0.8,0.6,1.1,0.9c0.5,0.2,1.1,0.6,1.6,1.1
				c0.6,0.5,1.1,0.8,1.5,1c0.2,0.2,0.4,0.3,0.8,0.5c0.4,0.2,0.8,0.3,1.2,0.4c0.4,0.1,0.8,0.2,1.1,0.3c0.3,0.1,0.6,0.1,0.7,0.1h1.6
				c0.3,0.1,0.6,0.2,0.9,0.3c0.5,0.2,1,0.4,1.4,0.7l2.5-0.5l1.8,0.5c0.3,0,0.4,0,0.5-0.1c0.1-0.1,0.2-0.1,0.3-0.2
				c0.1-0.1,0.3-0.1,0.4-0.2c0.2-0.1,0.5-0.1,0.9-0.1s0.9,0,1.3-0.1c0.4,0,0.9-0.2,1.4-0.4c1-0.3,2-0.7,3-1.3c1-0.6,1.9-1.1,2.8-1.6
				c0.2-0.2,0.4-0.4,0.6-0.6c0.2-0.2,0.4-0.4,0.6-0.7c0.3-0.6,0.8-1.1,1.4-1.6c0.3,0,0.5-0.1,0.6-0.3c0.1-0.2,0.3-0.5,0.4-0.7
				c0.2-0.2,0.4-0.4,0.6-0.6c0.2-0.2,0.7-0.2,1.2,0l0.2,0.2c0,0.1,0.1,0.2,0.1,0.3c0,0.1,0.1,0.4,0.1,0.7l-0.3,1.5
				c0,0.4-0.2,0.9-0.6,1.4s-0.9,1.1-1.4,1.6c-0.5,0.5-1,1.1-1.5,1.6c-0.5,0.5-0.9,0.9-1.1,1.2c-0.9,0.7-2,1.4-3.1,1.9
				c-1.2,0.6-2.3,1-3.4,1.4c-1.1,0.4-2,0.7-2.8,0.9c-0.8,0.2-1.3,0.3-1.4,0.3h-2.9c0-0.2-0.2-0.3-0.5-0.4c-0.2,0-0.3-0.1-0.5-0.1
				h-2.2l-1,0.5h-2.7c-0.1,0-0.4,0-0.7-0.1c-0.4,0-0.8-0.1-1.2-0.1c-0.4-0.1-0.8-0.1-1.2-0.2c-0.4-0.1-0.6-0.1-0.7-0.1
				c-1.3-0.3-2.6-0.8-3.8-1.6c-1.2-0.8-2.3-1.7-3.4-2.7c-1.1-1-2.1-1.9-3-2.8c-0.9-0.9-1.7-1.7-2.4-2.3c-0.2-0.5-0.6-1-1-1.5
				c-0.4-0.5-0.8-1.1-1.1-1.7c-0.3-0.8-0.8-1.5-1.5-2c-0.7-0.5-1.3-1.1-1.8-1.7c-0.6-0.9-1-1.7-1.4-2.5c-0.3-0.8-0.8-1.6-1.3-2.4
				c-0.4-0.3-0.8-0.6-1-1c-0.3-0.4-0.5-0.8-0.8-1.1c-0.3-0.4-0.6-0.7-0.9-1.1c-0.3-0.3-0.8-0.5-1.4-0.7c-0.8-0.1-1.6-0.3-2.4-0.5
				c-0.8-0.2-1.5-0.5-2.3-0.7c-0.8-0.2-1.5-0.4-2.2-0.6c-0.7-0.2-1.4-0.3-2.1-0.3c-0.2,0-0.4-0.2-0.4-0.6c0-0.4-0.1-0.7-0.1-1
				c0-0.3,0.2-0.6,0.6-1c0.4-0.4,0.8-0.7,1.3-1.1c0.5-0.3,1-0.6,1.4-0.9c0.4-0.2,0.7-0.4,0.8-0.4c0.6-0.4,1.2-0.7,1.8-1
				c0.6-0.3,1.2-0.5,1.9-0.8c0.6-0.2,1.3-0.5,1.9-0.7c0.7-0.2,1.3-0.6,2-1c0.8-0.6,1.6-1.2,2.4-1.6c0.8-0.4,1.6-1.1,2.5-1.9
				c0.4-0.2,0.8-0.5,1.2-0.9c0.4-0.4,0.8-0.8,1.2-1.1c0.4-0.4,0.8-0.7,1.2-1.1c0.4-0.3,0.8-0.6,1.2-0.7c0.1-0.1,0.2-0.3,0.3-0.4
				c0.1-0.2,0.2-0.4,0.3-0.5c0.2-0.2,0.3-0.4,0.4-0.6c0-0.2-0.1-0.4-0.3-0.6l-0.3-0.3c-0.4-0.2-1.1-0.4-2.1-0.8
				c-1-0.4-2-0.7-3.1-1.1c-1.1-0.4-2.2-0.7-3.2-0.9c-1-0.3-1.8-0.4-2.4-0.4c-0.1,0-0.4,0.1-0.8,0.3c-0.4,0.2-0.8,0.4-1.3,0.6
				c-0.5,0.2-0.9,0.4-1.3,0.6c-0.4,0.2-0.7,0.4-0.8,0.4c-0.3,0.6-0.7,1.1-1.2,1.7c-0.5,0.6-1.1,1-1.6,1.5c-0.6,0.4-1.1,0.8-1.7,1.1
				c-0.6,0.3-1,0.5-1.3,0.5c-0.2,0-0.4,0.1-0.6,0.1c-0.2,0-0.5,0-0.7-0.1c-0.2-0.1-0.5-0.2-0.6-0.5c-0.2-0.2-0.3-0.5-0.3-0.9
				c0-0.9,0.2-1.7,0.6-2.5c0.4-0.7,0.9-1.4,1.5-2c0.6-0.6,1.2-1.1,1.9-1.6c0.7-0.5,1.3-0.9,1.9-1.3c0.3-0.5,0.7-1.1,1.1-1.6
				c0.4-0.5,0.8-0.9,1.1-1.1c0.1-0.1,0.4-0.3,0.8-0.5c0.4-0.2,0.8-0.5,1.3-0.7s0.9-0.5,1.3-0.7S91.2,0,91.3,0z"/>
		</g>
		<g class="st0">
			<path class="st1" d="M136.9,4.6l2.1,0.5h1.1c0.5,0.2,0.9,0.3,1.4,0.5c0.4,0.2,0.7,0.3,1.1,0.4c0.3,0.1,0.6,0.3,0.7,0.4
				c0.6,0.3,1.2,0.6,2,0.8c0.7,0.2,1.4,0.6,1.9,1.1c0.3,0.3,0.6,0.7,0.9,1.4c0.3,0.6,0.6,1.1,0.9,1.4c1.3,1.1,2.1,2.2,2.5,3.2
				c0.4,1,0.5,1.9,0.5,2.7l-0.2,3.8v1.6c0,0.4-0.2,1-0.5,1.9c-0.3,0.8-0.7,1.7-1.1,2.6c-0.4,0.9-0.8,1.8-1.2,2.5
				c-0.4,0.8-0.6,1.3-0.7,1.5c-0.3,0.8-0.7,1.5-1.4,2c-0.7,0.5-1.3,0.9-2,1.2c-1,0.8-2,1.5-2.9,2.2c-0.9,0.6-1.9,1-3,1
				c-0.5,0-0.9,0-1.3-0.1c-0.4-0.1-1-0.1-1.8-0.1c-0.2,0-0.3,0-0.6,0c-0.2,0-0.5,0-0.7,0.1c-0.3,0-0.6,0.1-0.9,0.1h-1
				c-0.3,0-0.7-0.1-1.2-0.2c-0.5-0.1-0.9-0.3-1.3-0.5c-0.5-0.2-1-0.4-1.6-0.7c-1-0.5-2.1-1-3.1-1.5c-1.1-0.6-1.9-1.5-2.6-2.8
				c-0.8-1.9-1.5-3.9-2.2-5.9c-0.7-2.1-1-4-1-5.9c0-0.4,0-0.7,0.1-1c0.1-0.3,0.2-0.6,0.3-0.9c0.1-0.3,0.2-0.7,0.4-1
				c0.2-0.3,0.3-0.8,0.5-1.3c0-0.6,0.1-1.1,0.3-1.6c0.2-0.5,0.4-1,0.7-1.6c0-0.1,0.2-0.5,0.5-1.1c0.3-0.6,0.8-1.3,1.3-1.9
				c0.5-0.7,1-1.3,1.6-1.9c0.6-0.6,1-0.8,1.4-0.8l1.6-0.6c0.5,0,0.9,0,1.3-0.1c0.4,0,0.8-0.2,1.2-0.4c0.4-0.2,0.8-0.4,1.2-0.5
				c0.4-0.1,0.8-0.2,1.1-0.2h2.7H136.9z M132,9c-0.6,0-1.3,0.4-1.9,1.3c-0.6,0.9-1.2,1.9-1.7,3c-0.5,1.1-0.9,2.2-1.3,3.2
				c-0.3,1-0.5,1.7-0.5,2v1V23c0,0.5,0.3,1.3,1,2.4c0.7,1.1,1.5,2.2,2.5,3.2c1,1.1,2,2,3.2,2.9c1.1,0.8,2.1,1.3,3,1.3h1.1
				c0.8,0,1.7-0.2,2.6-0.6c0.9-0.4,1.8-1,2.6-1.7c0.8-0.7,1.4-1.6,2-2.5c0.5-1,0.8-2,0.8-3v-1.6v-3.8c0-0.8-0.1-1.4-0.3-1.9
				c-0.2-0.5-0.5-0.9-0.8-1.4c-0.3-0.4-0.7-0.9-1.2-1.5s-0.9-1.3-1.4-2.3c-0.3-0.2-0.6-0.5-1-0.9c-0.4-0.3-0.7-0.7-1.1-1
				s-0.8-0.6-1.3-0.8c-0.4-0.2-0.8-0.3-1.2-0.3h-1.1c-0.3,0-0.7,0-1.1-0.1c-0.4,0-0.8-0.1-1.3-0.2C133,9.2,132.5,9.1,132,9z"/>
		</g>
		<g class="st0">
			<path class="st1" d="M194.2,3.3c1.3,0,2.1,0.4,2.6,1.1c0.4,0.7,0.6,1.5,0.6,2.3c0,0.1-0.1,0.3-0.3,0.5c-0.2,0.2-0.4,0.5-0.6,0.7
				c-0.2,0.2-0.5,0.4-0.7,0.6c-0.2,0.2-0.4,0.3-0.6,0.3h-1c-0.3,0-0.5,0-0.7,0.1c-0.5,0.1-0.8,0.2-1,0.4c-0.6,0-1,0.1-1.3,0.4
				c-0.3,0.2-0.5,0.6-0.7,0.9c-0.2,0.4-0.2,0.8-0.3,1.3c0,0.5,0,0.9,0,1.3v3.8v4.1c0,0.4,0.1,0.7,0.2,1c0.1,0.2,0.2,0.4,0.3,0.6
				c0.2,0.2,0.3,0.5,0.3,0.7c0,0.2,0,0.5,0,0.7l-0.2,1.9c0,0.5,0.1,1.1,0.2,1.6c0.2,0.5,0.2,0.9,0.2,1.1l0.7,1.6v1.6
				c0,0.7,0.3,1.2,1,1.4c0.7,0.3,1.4,0.5,2.2,0.7c0.8,0.2,1.5,0.4,2.2,0.6c0.7,0.2,1,0.6,1,1.2c0,1.1-0.5,1.7-1.6,1.7h-2.1
				c-0.3,0-0.6,0-0.9,0c-0.3,0-0.6,0.1-0.9,0.3l-4.7-0.3h-1.6h-1.1c-0.1,0-0.4,0-0.8,0.1c-0.4,0-0.9,0.1-1.3,0.1
				c-0.5,0-0.9,0.1-1.3,0.1c-0.4,0-0.7,0.1-0.8,0.1c-0.6,0-1,0-1.2-0.1c-0.2-0.1-0.4-0.4-0.4-0.9c0-0.5,0.1-1.1,0.4-1.7
				c0.3-0.6,0.8-0.9,1.6-0.9h1.1h2.2c0.3,0,0.5-0.1,0.7-0.3s0.3-0.4,0.3-0.6c0.1-0.2,0.1-0.5,0.1-0.7c0-0.2,0-0.4,0-0.6
				c0-0.5-0.1-1.1-0.3-1.8c-0.2-0.7-0.3-1.2-0.3-1.4v-2.1v-1.7v-1.6c0-0.2,0-0.4-0.1-0.8c-0.1-0.4-0.1-0.7-0.3-1.1
				c-0.1-0.4-0.2-0.7-0.4-0.9c-0.1-0.3-0.3-0.4-0.4-0.4c-0.1,0-0.2,0.2-0.5,0.5c-0.2,0.3-0.5,0.7-0.9,1.3c-0.3,0.5-0.7,1.1-1.1,1.7
				s-0.8,1.2-1.1,1.9c-0.4,0.6-0.7,1.2-1,1.7c-0.3,0.5-0.5,0.9-0.7,1.1c-0.3,0.2-0.6,0.5-0.8,0.9c-0.2,0.4-0.4,0.8-0.5,1.2
				c-0.2,0.4-0.3,0.8-0.4,1.2c-0.1,0.4-0.2,0.7-0.3,1c-0.3,0.5-0.6,1-0.9,1.4c-0.3,0.4-0.5,0.7-0.7,1c-0.3,0.6-0.5,1-0.6,1.1
				c-0.1,0.1-0.3,0.1-0.6,0.1c-0.5,0-0.8-0.2-0.9-0.5c-0.1-0.3-0.4-0.7-0.7-1.3l-0.5-3.5c-0.3-0.7-0.6-1.4-0.9-2.1
				c-0.3-0.7-0.7-1.5-0.9-2.2c-0.3-0.7-0.5-1.5-0.7-2.2c-0.2-0.7-0.3-1.4-0.3-2.1v-0.6c0-0.2-0.1-0.4-0.2-0.8
				c-0.1-0.4-0.2-0.7-0.4-1.1c-0.2-0.4-0.3-0.7-0.5-0.9c-0.2-0.3-0.4-0.4-0.5-0.4c-0.1,0-0.3,0.2-0.5,0.5c-0.2,0.3-0.4,0.7-0.5,1.2
				c-0.2,0.5-0.3,0.9-0.4,1.4c-0.1,0.5-0.2,0.8-0.2,1.1v2.9v1.1c-0.2,1-0.3,1.9-0.5,2.7c-0.1,0.7-0.2,1.3-0.3,2
				c-0.1,0.6-0.1,1-0.1,1.2c0,1.1,0.2,1.8,0.6,2.2c0.4,0.4,0.8,0.6,1.3,0.7c0.5,0.1,0.9,0.2,1.3,0.3c0.4,0.1,0.6,0.5,0.6,1
				c0,0.4-0.1,0.7-0.3,0.9c-0.2,0.2-0.4,0.4-0.6,0.5c-0.2,0.1-0.5,0.2-0.7,0.2c-0.2,0-0.4,0-0.5,0h-2.2l-5.4-1h-1.1h-1
				c-0.1,0.1-0.2,0.1-0.4,0.2c-0.2,0.1-0.5,0.2-0.7,0.2h-1.1c-0.1,0-0.3,0-0.5-0.1c-0.2,0-0.5-0.1-0.7-0.2c-0.2-0.1-0.4-0.2-0.6-0.3
				c-0.2-0.1-0.3-0.2-0.3-0.4c0-0.4,0.1-0.7,0.4-1c0.3-0.3,0.6-0.5,1-0.7c0.4-0.2,0.7-0.3,1.1-0.4c0.3-0.1,0.6-0.1,0.7-0.1h1.1
				c0.1,0,0.3,0,0.7-0.1c0.3,0,0.7-0.1,1.1-0.2c0.4-0.1,0.9-0.2,1.4-0.2c0.3-0.3,0.5-0.7,0.8-1.4c0.3-0.7,0.5-1.3,0.7-2.1
				c0.2-0.7,0.4-1.3,0.5-1.9c0.1-0.6,0.2-1,0.2-1.1v-2.1v-0.6c0.1-0.1,0.2-0.3,0.3-0.5c0.1-0.2,0.1-0.5,0.2-0.8
				c0-0.3,0.1-0.6,0.1-0.9V20c0-0.2,0-0.4,0.1-0.7c0.1-0.3,0.1-0.6,0.2-0.9c0.1-0.3,0.2-0.7,0.3-1.1v-1.6c0.1-0.2,0.2-0.5,0.2-0.7
				c0.1-0.2,0.1-0.4,0.2-0.6c0-0.2,0.1-0.5,0.1-0.7v-1.3c0-0.1-0.1-0.4-0.2-0.8c-0.1-0.4-0.2-0.8-0.4-1.2c-0.2-0.5-0.3-1-0.5-1.7
				c-0.2-0.3-0.5-0.5-0.8-0.7c-0.3-0.2-0.7-0.5-1-0.7c-0.2-0.2-0.5-0.4-0.8-0.5c-0.3-0.2-0.6-0.4-0.8-0.8V5.4c0-0.2,0.1-0.4,0.3-0.5
				c0.2-0.1,0.4-0.2,0.7-0.3c0.3-0.1,0.6-0.1,1-0.1h1.4c0.4,0,0.7,0,0.8-0.1s0.3-0.1,0.4-0.2c0.1-0.1,0.1-0.2,0.2-0.2
				c0-0.1,0.1-0.1,0.2-0.1h2.7h1.1l1.6,0.6c0.4,1,0.8,2.2,1.2,3.6c0.4,1.4,0.9,2.9,1.3,4.5s0.9,3.2,1.3,4.8c0.4,1.6,0.9,3,1.3,4.2
				s0.8,2.3,1.1,3c0.3,0.8,0.6,1.2,0.7,1.2c0.1-0.2,0.2-0.4,0.3-0.5c0.1-0.2,0.2-0.3,0.3-0.5c0.1-0.2,0.3-0.3,0.4-0.4
				c0.6-1.9,1.3-4,2.3-6c1-2.1,1.8-4.1,2.6-6c0-0.8,0.2-1.5,0.7-2.1c0.5-0.6,1-1.3,1.5-2.1c0.1-0.3,0.2-0.6,0.2-1.1
				c0-0.4,0.1-0.9,0.2-1.3c0.1-0.4,0.3-0.8,0.5-1.2s0.6-0.6,1.1-0.8h2.2l0.8,0.5c0.5,0,1,0,1.5-0.1c0.5-0.1,0.9-0.2,1.3-0.3
				C193.3,3.7,193.7,3.5,194.2,3.3z"/>
		</g>
		<g class="st0">
			<path class="st1" d="M216.7,4.6l2.1,0.5h1.1c0.5,0.2,0.9,0.3,1.4,0.5c0.4,0.2,0.7,0.3,1.1,0.4c0.3,0.1,0.6,0.3,0.7,0.4
				c0.6,0.3,1.2,0.6,2,0.8c0.7,0.2,1.4,0.6,1.9,1.1c0.3,0.3,0.6,0.7,0.9,1.4c0.3,0.6,0.6,1.1,0.9,1.4c1.3,1.1,2.1,2.2,2.5,3.2
				c0.4,1,0.5,1.9,0.5,2.7l-0.2,3.8v1.6c0,0.4-0.2,1-0.5,1.9c-0.3,0.8-0.7,1.7-1.1,2.6c-0.4,0.9-0.8,1.8-1.2,2.5
				c-0.4,0.8-0.6,1.3-0.7,1.5c-0.3,0.8-0.7,1.5-1.4,2c-0.7,0.5-1.3,0.9-2,1.2c-1,0.8-2,1.5-2.9,2.2c-0.9,0.6-1.9,1-3,1
				c-0.5,0-0.9,0-1.3-0.1c-0.4-0.1-1-0.1-1.8-0.1c-0.2,0-0.3,0-0.6,0c-0.2,0-0.5,0-0.7,0.1c-0.3,0-0.6,0.1-0.9,0.1h-1
				c-0.3,0-0.7-0.1-1.2-0.2c-0.5-0.1-0.9-0.3-1.3-0.5c-0.5-0.2-1-0.4-1.6-0.7c-1-0.5-2.1-1-3.1-1.5c-1.1-0.6-1.9-1.5-2.6-2.8
				c-0.8-1.9-1.5-3.9-2.2-5.9c-0.7-2.1-1-4-1-5.9c0-0.4,0-0.7,0.1-1c0.1-0.3,0.2-0.6,0.3-0.9c0.1-0.3,0.2-0.7,0.4-1
				c0.2-0.3,0.3-0.8,0.5-1.3c0-0.6,0.1-1.1,0.3-1.6c0.2-0.5,0.4-1,0.7-1.6c0-0.1,0.2-0.5,0.5-1.1c0.3-0.6,0.8-1.3,1.3-1.9
				c0.5-0.7,1-1.3,1.6-1.9c0.6-0.6,1-0.8,1.4-0.8l1.6-0.6c0.5,0,0.9,0,1.3-0.1c0.4,0,0.8-0.2,1.2-0.4c0.4-0.2,0.8-0.4,1.2-0.5
				c0.4-0.1,0.8-0.2,1.1-0.2h2.7H216.7z M211.8,9c-0.6,0-1.3,0.4-1.9,1.3c-0.6,0.9-1.2,1.9-1.7,3c-0.5,1.1-0.9,2.2-1.3,3.2
				c-0.3,1-0.5,1.7-0.5,2v1V23c0,0.5,0.3,1.3,1,2.4c0.7,1.1,1.5,2.2,2.5,3.2c1,1.1,2,2,3.2,2.9c1.1,0.8,2.1,1.3,3,1.3h1.1
				c0.8,0,1.7-0.2,2.6-0.6c0.9-0.4,1.8-1,2.6-1.7c0.8-0.7,1.4-1.6,2-2.5c0.5-1,0.8-2,0.8-3v-1.6v-3.8c0-0.8-0.1-1.4-0.3-1.9
				c-0.2-0.5-0.5-0.9-0.8-1.4c-0.3-0.4-0.7-0.9-1.2-1.5s-0.9-1.3-1.4-2.3c-0.3-0.2-0.6-0.5-1-0.9c-0.4-0.3-0.7-0.7-1.1-1
				s-0.8-0.6-1.3-0.8c-0.4-0.2-0.8-0.3-1.2-0.3h-1.1c-0.3,0-0.7,0-1.1-0.1c-0.4,0-0.8-0.1-1.3-0.2C212.8,9.2,212.3,9.1,211.8,9z"/>
			<path class="st1" d="M255.9,3.8c0.8,0,1.5,0.3,2.1,0.9c0.7,0.6,1.3,1.1,1.8,1.6c0.3,0.9,0.8,1.6,1.4,2.1c0.2,0.3,0.5,0.6,0.7,0.9
				c0.2,0.3,0.4,0.7,0.5,1.1c0.2,0,0.3,0.2,0.5,0.5c0.2,0.3,0.3,0.7,0.4,1.1c0.1,0.4,0.2,0.8,0.3,1.2s0.1,0.6,0.1,0.7
				c0,0.5-0.1,1.1-0.3,1.8c-0.2,0.6-0.4,1.3-0.7,1.9c-0.3,0.6-0.6,1.3-0.9,1.9c-0.3,0.6-0.6,1.1-0.8,1.5c-0.2,0.3-0.4,0.5-0.6,0.6
				c-0.2,0.2-0.5,0.3-0.7,0.4c-0.2,0.1-0.4,0.3-0.6,0.5c-0.2,0.2-0.3,0.5-0.3,0.9c0,0.4,0.1,1,0.3,1.7c0.2,0.7,0.5,1.4,0.9,2.1
				c0.3,0.7,0.7,1.3,1.1,1.8c0.4,0.5,0.7,0.9,0.9,1c0.5,0.3,0.9,0.7,1.2,1.1s0.7,0.9,1.1,1.4c0.4,0.5,0.8,0.9,1.3,1.2
				c0.5,0.4,1,0.6,1.6,0.7c0.2,0.1,0.6,0.2,1.1,0.4c0.5,0.2,0.9,0.4,1.1,0.7c0.2,0.2,0.4,0.4,0.4,0.5c0,0.1,0,0.3-0.1,0.6
				c-0.1,0.4-0.4,0.7-0.8,0.9c-0.4,0.2-0.9,0.3-1.4,0.4c-0.5,0.1-1,0.1-1.4,0.1c-0.4,0-0.7,0-0.7-0.1c-0.3-0.2-0.6-0.3-1.1-0.3
				c-0.4,0-0.8,0-1.1-0.1c-1-0.6-1.7-1.1-2.2-1.5s-0.9-0.7-1.5-1.1c-0.2-0.1-0.5-0.3-0.9-0.6c-0.3-0.3-0.7-0.6-1.1-1
				c-0.4-0.4-0.8-0.8-1.2-1.2c-0.4-0.4-0.8-0.8-1.1-1.1c-0.5-0.6-0.8-1.1-1.2-1.7c-0.3-0.5-0.6-1-0.9-1.5c-0.2-0.5-0.5-0.9-0.7-1.3
				c-0.2-0.4-0.5-0.7-0.7-0.9c-0.5-0.3-0.9-0.6-1.2-0.9c-0.2-0.3-0.6-0.4-1.2-0.4c-0.5,0-0.8,0.1-1.1,0.4c-0.2,0.3-0.4,0.6-0.6,1
				c-0.1,0.4-0.2,0.8-0.3,1.2c0,0.4-0.1,0.8-0.1,1l0.6,2.7v1.1c0,0.9,0.3,1.6,0.9,2.1c0.6,0.5,1.2,0.8,1.9,1.1
				c0.7,0.3,1.3,0.6,1.9,0.9c0.6,0.3,0.9,0.7,0.9,1.3c0,0.3-0.1,0.5-0.4,0.7c-0.3,0.2-0.5,0.3-0.7,0.3h-2.1l-3.2-0.5H246h-2.7h-1
				h-2.2c-0.1,0-0.5,0-1.1-0.1c-0.6-0.1-1.3-0.2-2-0.3c-0.7-0.1-1.3-0.3-1.9-0.6c-0.6-0.2-0.9-0.6-0.9-1c0-0.1,0.1-0.2,0.2-0.3
				c0.1-0.1,0.2-0.2,0.4-0.3c0.2-0.2,0.3-0.3,0.6-0.4c0.1,0,0.3,0,0.5,0.1c0.2,0,0.5,0.1,0.7,0.1c0.3,0,0.6,0.1,0.9,0.1h1.1
				c0.8,0,1.4-0.2,1.9-0.7c0.5-0.4,0.8-0.9,0.8-1.4v-6v-9.2l0.5-4.1c-0.1-0.4-0.2-0.8-0.2-1.4c0-0.5-0.1-1-0.2-1.5
				c-0.1-0.5-0.3-0.9-0.5-1.3c-0.2-0.4-0.6-0.6-1.1-0.7h-2.2c-0.4,0-0.8,0-1.3-0.1c-0.4-0.1-0.8-0.2-1.2-0.4
				c-0.4-0.2-0.7-0.5-0.9-0.8c-0.2-0.3-0.3-0.8-0.3-1.4c0-0.1,0.1-0.2,0.3-0.4c0.2-0.1,0.4-0.3,0.5-0.4c0.2-0.2,0.5-0.3,0.8-0.4
				l9.6-0.5h5.9c0.1,0,0.3,0,0.6-0.1c0.3,0,0.6-0.1,0.9-0.2c0.4-0.1,0.8-0.2,1.2-0.2H255.9z M250.5,9.6c-0.2,0-0.3,0.1-0.5,0.1
				c-0.2,0.1-0.4,0.1-0.6,0.2s-0.5,0.2-0.7,0.4c-0.3,0-0.5,0.1-0.8,0.4c-0.2,0.2-0.4,0.6-0.4,1.2v1V15v1c0,0.3-0.1,0.6-0.2,0.8
				c-0.2,0.2-0.2,0.5-0.2,0.7l0.2,0.1c0.1,0.1,0.1,0.1,0.2,0.2c0,0.1,0.1,0.2,0.1,0.4c-0.1,0.4-0.1,0.7,0.1,1.1
				c0.2,0.3,0.5,0.6,0.8,0.9c0.3,0.2,0.7,0.4,1.1,0.6s0.7,0.2,1,0.2c0.3-0.2,0.7-0.3,1-0.5c0.3-0.1,0.6-0.2,0.8-0.3
				c0.2-0.1,0.5-0.2,0.7-0.2l1.1,0.5c0.5,0,0.9-0.2,1.3-0.6c0.3-0.4,0.6-0.9,0.8-1.4c0.2-0.5,0.4-1,0.5-1.5c0.1-0.5,0.2-0.8,0.3-0.9
				l-0.3-1.6c0-0.3,0-0.5-0.1-0.8s-0.2-0.5-0.5-0.8c0-0.2,0-0.6-0.1-1s-0.2-0.8-0.5-1c-0.1,0-0.4-0.1-0.8-0.2
				c-0.4-0.1-0.9-0.2-1.4-0.4c-0.5-0.2-1-0.3-1.5-0.4S250.7,9.6,250.5,9.6z"/>
			<path class="st1" d="M279.3,4.4c0.1,0,0.3,0,0.6,0.1c0.3,0.1,0.5,0.1,0.9,0.2c0.3,0.1,0.6,0.1,0.9,0.1c0.3,0,0.5,0.1,0.7,0.1
				c0.1,0,0.2,0.1,0.4,0.2c0.2,0.2,0.4,0.3,0.5,0.6c0.2,0.2,0.3,0.5,0.5,0.8c0.1,0.3,0.2,0.6,0.2,0.8c0,0.2-0.2,0.3-0.7,0.4
				c-0.5,0.1-1,0.2-1.5,0.3c-0.6,0.1-1.1,0.2-1.5,0.4c-0.5,0.2-0.7,0.3-0.7,0.6v4c0.1,0.3,0.2,0.6,0.3,0.9c0.1,0.2,0.2,0.5,0.2,0.7
				c0.1,0.2,0.1,0.4,0.1,0.5l-0.6,2.7c0,0.1,0,0.3,0.1,0.6c0.1,0.3,0.1,0.6,0.2,1c0.1,0.3,0.2,0.7,0.2,1c0.1,0.3,0.1,0.5,0.1,0.6
				l0.5,2.8c0,0.8-0.1,1.5-0.3,2.2c-0.2,0.7-0.3,1.2-0.3,1.4V29c0,0.2-0.1,0.4-0.3,0.6c-0.2,0.2-0.3,0.7-0.3,1.5
				c0,0.2,0.1,0.3,0.2,0.5s0.3,0.4,0.4,0.6c0.2,0.2,0.4,0.3,0.5,0.4c0.2,0.1,0.3,0.2,0.5,0.2l1.3,0.3c1.1,0.5,1.6,1.3,1.6,2.4
				c0,0.5-0.3,0.8-0.9,1.1S281.7,37,281,37h-1H279h-1.1l-2.1-0.6c-0.2,0-0.6,0.1-1,0.2c-0.4,0.1-0.9,0.2-1.3,0.4
				c-0.5,0.2-0.9,0.3-1.3,0.4s-0.6,0.2-0.7,0.2c-0.2,0-0.5-0.1-0.9-0.4c-0.4-0.2-0.6-0.5-0.6-0.8c0-0.4,0.2-0.8,0.7-1.1
				c0.4-0.3,0.9-0.6,1.4-1c0.5-0.3,0.9-0.7,1.3-1.1c0.4-0.4,0.5-0.9,0.4-1.4c-0.3-0.6-0.4-1-0.2-1.3c0.2-0.3,0.2-0.6,0.2-0.8v-1.5
				v-3.8v-8.3l-0.6-1.5c0.1-0.4,0.2-0.8,0.3-1.2c0.1-0.3,0.2-0.6,0.2-0.9c0.1-0.3,0.1-0.5,0.1-0.7c0-0.8-0.1-1.4-0.2-1.8
				s-0.3-0.8-0.5-1.1c-0.2-0.2-0.4-0.3-0.6-0.4c-0.2-0.1-0.5-0.1-0.7-0.1c-0.2,0-0.5,0-0.8-0.1c-0.3,0-0.5-0.1-0.7-0.2
				c-0.2-0.2-0.4-0.4-0.6-0.7c-0.2-0.3-0.2-0.9-0.2-1.6c0-0.2,0-0.3,0.1-0.5c0-0.1,0.1-0.2,0.1-0.3c0.1-0.1,0.2-0.2,0.3-0.2h1.1h2.1
				c0.2,0,0.3,0,0.5,0.1s0.4,0.1,0.6,0.2s0.4,0.2,0.6,0.2c0.2,0,0.5,0,0.9-0.1c0.3,0,0.7-0.1,1-0.2c0.4-0.1,0.8-0.2,1.2-0.2h0.6
				c0.2,0,0.3-0.1,0.6-0.2L279.3,4.4z"/>
			<path class="st1" d="M303.6,4.4c0.3,0,0.4,0,0.5,0.1s0.2,0.2,0.5,0.5h9.8l4.8,0.9h1.6c1.1,0,2,0.4,2.7,1.1
				c0.7,0.8,1.3,1.6,1.8,2.7s0.8,2,1,3c0.2,1,0.3,1.8,0.3,2.4c0,0.6,0,1.4-0.1,2.2s-0.3,1.6-0.6,2.4c-0.3,0.8-0.7,1.5-1.3,2.1
				c-0.6,0.6-1.3,1.1-2.3,1.4c-0.2,0-0.4,0-0.6,0.1c-0.3,0.1-0.5,0.2-0.8,0.3c-0.3,0.1-0.5,0.2-0.7,0.3c-0.2,0.1-0.4,0.1-0.5,0.1
				c-0.3,0-0.6,0-1.1-0.1c-0.5-0.1-1-0.2-1.4-0.3c-0.5-0.2-0.9-0.4-1.2-0.6c-0.3-0.2-0.5-0.6-0.5-1c0-0.5,0.2-0.9,0.5-1.1
				c0.3-0.2,0.7-0.3,1.2-0.4c0.5-0.1,1-0.2,1.5-0.3c0.6-0.1,1.1-0.4,1.5-0.8c0.5-0.4,0.9-1,1.2-1.9c0.3-0.9,0.5-2,0.5-3.6
				c0-0.2,0-0.5-0.1-0.8s-0.2-0.6-0.4-0.8c-0.3-0.4-0.7-0.8-1.3-1.1c-0.6-0.3-1.2-0.6-1.8-0.9c-0.6-0.2-1.2-0.4-1.7-0.5
				c-0.5-0.1-0.9-0.2-1-0.2h-1c-0.2,0-0.3,0.1-0.5,0.2s-0.4,0.2-0.5,0.4c-0.2,0.2-0.3,0.3-0.3,0.5c-0.1,0.2,0,0.4,0.1,0.5v7.5v2.7
				v3.3l0.6,2.6c-0.1,0.5-0.2,1-0.3,1.4c-0.1,0.4-0.1,0.8-0.2,1.1c-0.1,0.4-0.1,0.6-0.1,0.8c0,1.1,0.3,1.7,0.9,2s1.2,0.4,1.9,0.5
				c0.7,0,1.3,0.1,1.9,0.1c0.6,0.1,0.9,0.4,0.9,1V35c0,0.2-0.1,0.4-0.2,0.6c-0.1,0.2-0.2,0.5-0.4,0.7c-0.2,0.2-0.3,0.5-0.5,0.6
				c-0.2,0.2-0.4,0.3-0.5,0.3h-1c-0.3,0-0.8-0.1-1.4-0.3c-0.6-0.2-1.1-0.3-1.4-0.3h-3.6c-0.2,0-0.5,0-0.9,0.1
				c-0.5,0.1-1,0.1-1.6,0.2c-0.6,0.1-1.1,0.2-1.7,0.2c-0.5,0.1-0.9,0.1-1.2,0.1c-0.4,0-0.8,0-1.2,0c-0.4,0-0.7-0.1-1-0.3
				c-0.3-0.2-0.5-0.4-0.7-0.7c-0.2-0.3-0.3-0.7-0.3-1.3c0-0.3,0-0.6,0-0.9c0-0.4,0.1-0.7,0.2-1c0.1-0.3,0.3-0.6,0.6-0.8
				c0.3-0.2,0.7-0.3,1.2-0.3l0.6,0.5h2.1c1,0,1.5-0.5,1.5-1.6V29l0.6-2.1l-0.6-1.1c0.1-0.3,0.2-0.6,0.3-0.9c0.1-0.2,0.2-0.5,0.2-0.7
				c0.1-0.2,0.1-0.4,0.1-0.5c0-0.3-0.1-0.6-0.3-1.1c-0.2-0.5-0.3-0.8-0.3-1.1c0-0.1,0-0.2,0.1-0.3c0.1-0.1,0.1-0.2,0.2-0.3
				c0.1-0.2,0.2-0.3,0.2-0.6c0.1-0.2,0.1-0.6,0.1-1v-2.1v-1.1c0-0.2-0.1-0.5-0.3-0.8c-0.2-0.3-0.3-0.7-0.3-1.3v-1.6
				c0-0.4,0.1-0.8,0.3-1.3c0.1-0.3,0.2-0.6,0.3-0.9c0-0.6-0.2-1.1-0.7-1.5c-0.5-0.4-1.1-0.6-1.9-0.6h-0.6c-0.1,0-0.3,0-0.7-0.1
				s-0.7-0.2-1.1-0.3c-0.4-0.1-0.7-0.3-1-0.5c-0.3-0.2-0.4-0.4-0.4-0.6c0-0.3,0.1-0.6,0.3-0.9c0.2-0.3,0.4-0.5,0.6-0.7
				c0.2-0.2,0.5-0.3,0.7-0.5C303.3,4.5,303.5,4.4,303.6,4.4z"/>
			<path class="st1" d="M350.1,3.8c0.8,0,1.5,0.3,2.1,0.9c0.7,0.6,1.3,1.1,1.8,1.6c0.3,0.9,0.8,1.6,1.4,2.1c0.2,0.3,0.5,0.6,0.7,0.9
				c0.2,0.3,0.4,0.7,0.5,1.1c0.2,0,0.3,0.2,0.5,0.5c0.2,0.3,0.3,0.7,0.4,1.1c0.1,0.4,0.2,0.8,0.3,1.2c0.1,0.4,0.1,0.6,0.1,0.7
				c0,0.5-0.1,1.1-0.3,1.8c-0.2,0.6-0.4,1.3-0.7,1.9c-0.3,0.6-0.6,1.3-0.9,1.9c-0.3,0.6-0.6,1.1-0.8,1.5c-0.2,0.3-0.4,0.5-0.6,0.6
				c-0.2,0.2-0.5,0.3-0.7,0.4c-0.2,0.1-0.4,0.3-0.6,0.5c-0.2,0.2-0.3,0.5-0.3,0.9c0,0.4,0.1,1,0.3,1.7c0.2,0.7,0.5,1.4,0.9,2.1
				c0.3,0.7,0.7,1.3,1.1,1.8s0.7,0.9,0.9,1c0.5,0.3,0.9,0.7,1.2,1.1c0.4,0.5,0.7,0.9,1.1,1.4c0.4,0.5,0.8,0.9,1.3,1.2
				c0.5,0.4,1,0.6,1.6,0.7c0.2,0.1,0.6,0.2,1.1,0.4c0.5,0.2,0.9,0.4,1.1,0.7c0.2,0.2,0.4,0.4,0.4,0.5c0,0.1,0,0.3-0.1,0.6
				c-0.1,0.4-0.4,0.7-0.8,0.9c-0.4,0.2-0.9,0.3-1.4,0.4c-0.5,0.1-1,0.1-1.4,0.1c-0.4,0-0.7,0-0.7-0.1c-0.3-0.2-0.6-0.3-1.1-0.3
				c-0.4,0-0.8,0-1.1-0.1c-1-0.6-1.7-1.1-2.2-1.5c-0.4-0.4-0.9-0.7-1.5-1.1c-0.2-0.1-0.5-0.3-0.9-0.6s-0.7-0.6-1.1-1
				c-0.4-0.4-0.8-0.8-1.2-1.2s-0.8-0.8-1.1-1.1c-0.5-0.6-0.8-1.1-1.2-1.7c-0.3-0.5-0.6-1-0.9-1.5c-0.2-0.5-0.5-0.9-0.7-1.3
				c-0.2-0.4-0.5-0.7-0.7-0.9c-0.5-0.3-0.9-0.6-1.2-0.9c-0.2-0.3-0.6-0.4-1.2-0.4c-0.5,0-0.8,0.1-1.1,0.4s-0.4,0.6-0.6,1
				c-0.1,0.4-0.2,0.8-0.3,1.2c0,0.4-0.1,0.8-0.1,1l0.6,2.7v1.1c0,0.9,0.3,1.6,0.9,2.1c0.6,0.5,1.2,0.8,1.9,1.1
				c0.7,0.3,1.3,0.6,1.9,0.9c0.6,0.3,0.9,0.7,0.9,1.3c0,0.3-0.1,0.5-0.4,0.7S347,38,346.7,38h-2.1l-3.2-0.5h-1.3h-2.7h-1h-2.2
				c-0.1,0-0.5,0-1.1-0.1c-0.6-0.1-1.3-0.2-2-0.3c-0.7-0.1-1.3-0.3-1.9-0.6c-0.6-0.2-0.9-0.6-0.9-1c0-0.1,0.1-0.2,0.2-0.3
				c0.1-0.1,0.2-0.2,0.4-0.3c0.2-0.2,0.3-0.3,0.6-0.4c0.1,0,0.3,0,0.5,0.1c0.2,0,0.5,0.1,0.7,0.1c0.3,0,0.5,0.1,0.9,0.1h1.1
				c0.8,0,1.4-0.2,1.9-0.7c0.5-0.4,0.8-0.9,0.8-1.4v-6v-9.2l0.5-4.1c-0.1-0.4-0.2-0.8-0.2-1.4s-0.1-1-0.2-1.5
				c-0.1-0.5-0.3-0.9-0.5-1.3c-0.2-0.4-0.6-0.6-1.1-0.7h-2.2c-0.4,0-0.8,0-1.3-0.1c-0.4-0.1-0.8-0.2-1.2-0.4
				c-0.4-0.2-0.7-0.5-0.9-0.8c-0.2-0.3-0.3-0.8-0.3-1.4c0-0.1,0.1-0.2,0.3-0.4c0.2-0.1,0.4-0.3,0.5-0.4c0.2-0.2,0.5-0.3,0.8-0.4
				l9.6-0.5h5.9c0.1,0,0.3,0,0.6-0.1c0.3,0,0.6-0.1,0.9-0.2c0.4-0.1,0.8-0.2,1.2-0.2H350.1z M344.7,9.6c-0.2,0-0.3,0.1-0.5,0.1
				c-0.2,0.1-0.4,0.1-0.6,0.2c-0.2,0.1-0.5,0.2-0.7,0.4c-0.3,0-0.5,0.1-0.8,0.4s-0.4,0.6-0.4,1.2v1V15v1c0,0.3-0.1,0.6-0.2,0.8
				c-0.2,0.2-0.2,0.5-0.2,0.7l0.2,0.1c0.1,0.1,0.1,0.1,0.2,0.2s0.1,0.2,0.1,0.4c-0.1,0.4-0.1,0.7,0.1,1.1c0.2,0.3,0.5,0.6,0.8,0.9
				c0.3,0.2,0.7,0.4,1.1,0.6c0.4,0.1,0.7,0.2,1,0.2c0.3-0.2,0.7-0.3,1-0.5c0.3-0.1,0.6-0.2,0.8-0.3c0.2-0.1,0.5-0.2,0.7-0.2l1.1,0.5
				c0.5,0,0.9-0.2,1.3-0.6c0.3-0.4,0.6-0.9,0.8-1.4c0.2-0.5,0.4-1,0.5-1.5c0.1-0.5,0.2-0.8,0.3-0.9l-0.3-1.6c0-0.3,0-0.5-0.1-0.8
				c-0.1-0.2-0.2-0.5-0.5-0.8c0-0.2,0-0.6-0.1-1c-0.1-0.5-0.2-0.8-0.5-1c-0.1,0-0.4-0.1-0.8-0.2c-0.4-0.1-0.9-0.2-1.4-0.4
				c-0.5-0.2-1-0.3-1.5-0.4C345.3,9.7,344.9,9.6,344.7,9.6z"/>
			<path class="st1" d="M380.3,4.6l2.1,0.5h1.1c0.5,0.2,0.9,0.3,1.4,0.5c0.4,0.2,0.7,0.3,1.1,0.4c0.3,0.1,0.6,0.3,0.7,0.4
				c0.6,0.3,1.2,0.6,2,0.8s1.4,0.6,1.9,1.1c0.3,0.3,0.6,0.7,0.9,1.4c0.3,0.6,0.6,1.1,0.9,1.4c1.3,1.1,2.1,2.2,2.5,3.2
				c0.4,1,0.5,1.9,0.5,2.7l-0.2,3.8v1.6c0,0.4-0.2,1-0.5,1.9c-0.3,0.8-0.7,1.7-1.1,2.6c-0.4,0.9-0.8,1.8-1.2,2.5
				c-0.4,0.8-0.6,1.3-0.7,1.5c-0.3,0.8-0.7,1.5-1.4,2c-0.7,0.5-1.3,0.9-2,1.2c-1,0.8-2,1.5-2.9,2.2c-0.9,0.6-1.9,1-3,1
				c-0.5,0-0.9,0-1.3-0.1c-0.4-0.1-1-0.1-1.8-0.1c-0.2,0-0.3,0-0.6,0c-0.2,0-0.5,0-0.7,0.1c-0.3,0-0.6,0.1-0.9,0.1h-1
				c-0.3,0-0.7-0.1-1.2-0.2c-0.5-0.1-0.9-0.3-1.3-0.5c-0.5-0.2-1-0.4-1.6-0.7c-1-0.5-2.1-1-3.1-1.5c-1.1-0.6-1.9-1.5-2.6-2.8
				c-0.8-1.9-1.5-3.9-2.2-5.9s-1-4-1-5.9c0-0.4,0-0.7,0.1-1c0.1-0.3,0.2-0.6,0.3-0.9c0.1-0.3,0.2-0.7,0.4-1c0.2-0.3,0.3-0.8,0.5-1.3
				c0-0.6,0.1-1.1,0.3-1.6c0.2-0.5,0.4-1,0.7-1.6c0-0.1,0.2-0.5,0.5-1.1c0.3-0.6,0.8-1.3,1.3-1.9c0.5-0.7,1-1.3,1.6-1.9
				c0.5-0.6,1-0.8,1.4-0.8l1.6-0.6c0.5,0,0.9,0,1.3-0.1c0.4,0,0.8-0.2,1.2-0.4c0.4-0.2,0.8-0.4,1.2-0.5c0.4-0.1,0.8-0.2,1.1-0.2h2.7
				H380.3z M375.4,9c-0.6,0-1.3,0.4-1.9,1.3c-0.6,0.9-1.2,1.9-1.7,3s-0.9,2.2-1.3,3.2c-0.3,1-0.5,1.7-0.5,2v1V23
				c0,0.5,0.3,1.3,1,2.4c0.7,1.1,1.5,2.2,2.5,3.2s2,2,3.2,2.9c1.1,0.8,2.1,1.3,3,1.3h1.1c0.8,0,1.7-0.2,2.6-0.6
				c0.9-0.4,1.8-1,2.6-1.7c0.8-0.7,1.4-1.6,2-2.5s0.8-2,0.8-3v-1.6v-3.8c0-0.8-0.1-1.4-0.3-1.9c-0.2-0.5-0.5-0.9-0.8-1.4
				c-0.3-0.4-0.7-0.9-1.2-1.5s-0.9-1.3-1.4-2.3c-0.3-0.2-0.6-0.5-1-0.9c-0.4-0.3-0.7-0.7-1.1-1c-0.4-0.3-0.8-0.6-1.3-0.8
				c-0.4-0.2-0.8-0.3-1.2-0.3h-1.1c-0.3,0-0.7,0-1.1-0.1c-0.4,0-0.8-0.1-1.3-0.2C376.4,9.2,375.9,9.1,375.4,9z"/>
			<path class="st1" d="M404.2,13.6l-0.2-1l0.2-3.1c0-0.1-0.1-0.2-0.3-0.4c-0.2-0.1-0.4-0.3-0.6-0.4c-0.2-0.1-0.5-0.2-0.7-0.3
				s-0.4-0.1-0.6-0.1h-1.6c-0.2,0-0.4,0-0.7,0.1c-0.3,0.1-0.6,0.1-0.9,0.2c-0.3,0.1-0.6,0.2-0.9,0.2C397.6,9,397.3,9,397.2,9
				c-0.5,0-0.8-0.1-0.9-0.4c-0.1-0.2-0.1-0.5-0.1-0.7c0-0.4,0.2-0.8,0.6-1.2c0.4-0.4,0.8-0.8,1.3-1.1c0.5-0.3,1-0.6,1.5-0.8
				c0.5-0.2,0.8-0.3,0.9-0.3h0.6h1.6c0.4,0,0.7,0,0.9,0.1c0.2,0.1,0.4,0.2,0.6,0.2c0.2,0.1,0.3,0.2,0.5,0.2s0.3,0.1,0.5,0.1
				c0.2,0,0.6,0,1.3-0.1s1.5-0.2,2.4-0.3c0.9-0.1,1.7-0.2,2.5-0.3c0.8-0.1,1.4-0.1,1.9-0.1h1.1c0.2,0,0.5,0,0.9,0.1
				c0.4,0.1,0.6,0.4,0.6,0.9c0,0.7-0.3,1.1-0.9,1.3c-0.6,0.2-1.3,0.4-2,0.6c-0.7,0.2-1.4,0.5-2,1c-0.6,0.5-0.9,1.3-0.9,2.5
				c0,0.1-0.1,0.2-0.1,0.4c0,0.1-0.1,0.2-0.1,0.4c0,0.2,0,0.3,0,0.5c0.2,0.5,0,1-0.3,1.8c-0.2,0.9-0.3,1.6-0.3,2.1
				c0.1,0.1,0.2,0.2,0.3,0.3c0.2,0.2,0.3,0.4,0.5,0.7c0,0.2,0,0.4,0,0.6c0,0.2,0,0.4,0.1,0.5c0,0.2,0,0.3,0.1,0.5
				c0.1,0.7,0.1,1.3,0.1,1.9c0,0.6-0.1,1.1-0.1,1.6c-0.1,0.5-0.1,1-0.1,1.5c0,0.5,0,1,0.1,1.5l-0.2,2.9l0.2,0.9l-0.3,1.8
				c0.1,0.6,0,1.7-0.2,3c-0.2,1.4-0.5,2.9-0.9,4.4c-0.4,1.6-0.8,3-1.3,4.4c-0.5,1.4-0.9,2.4-1.3,3c-0.7,0.9-1.6,1.6-2.7,2.1
				c-1.1,0.5-2.1,0.9-3,1.1c-0.9,0.2-1.6,0.4-2.1,0.5c-0.4,0.1-0.3,0.1,0.4,0.1h-1.1c-0.1,0-0.4,0-0.7,0.1c-0.4,0.1-0.8,0.1-1.3,0.2
				c-0.5,0.1-0.9,0.1-1.4,0.1s-0.8,0.1-1.1,0.1c-0.4,0-0.9,0-1.5-0.1c-0.6-0.1-1.2-0.2-1.8-0.5c-0.6-0.2-1.1-0.6-1.5-1
				c-0.4-0.4-0.6-1-0.6-1.7c0-0.2,0.2-0.6,0.5-1s0.7-0.9,1.1-1.4c0.5-0.5,1-1.1,1.7-1.7c0.1-0.2,0.2-0.3,0.4-0.4
				c0.1-0.1,0.3-0.1,0.4-0.2c0.2,0,0.3-0.1,0.4-0.1c0.2,0,0.5,0,0.7,0.1s0.5,0.3,0.8,0.6c0.6,0.4,1,0.8,1.4,1.1
				c0.4,0.4,0.7,0.7,1.1,1c0.4,0.3,0.8,0.5,1.3,0.7c0.5,0.2,1.2,0.3,2,0.3c0.2-0.2,0.5-0.4,0.7-0.6c0.2-0.2,0.4-0.4,0.7-0.5
				c0.2-0.2,0.5-0.3,0.7-0.5c0.7-0.7,1.2-1.5,1.6-2.3c0.4-0.9,0.7-1.7,0.9-2.7c0.2-0.9,0.3-1.9,0.4-2.8c0.1-0.9,0.1-1.8,0.1-2.7
				c0.1-0.1,0.2-0.3,0.3-0.6c0.1-0.3,0.1-0.6,0.1-1s0-0.8-0.1-1.1c0-0.4-0.1-0.7-0.2-1v-1.1V25v-8.7L404.2,13.6z"/>
			<path class="st1" d="M426.7,5.1c0.2,0,0.4,0,0.7,0.1c0.2,0,0.5,0.1,0.7,0.1c0.3,0,0.6,0,1,0.1c0.4,0,0.9,0.1,1.6,0.1l1.9-0.5
				c0.3-0.1,0.6-0.2,0.9-0.2c0.2-0.1,0.5-0.1,0.7-0.2c0.2,0,0.4-0.1,0.5-0.1c0.3,0,0.6,0.1,1,0.3c0.4,0.2,0.8,0.4,1.1,0.6
				c0.3,0.5,0.4,1.1,0.5,1.8c0.1,0.7,0.2,1.3,0.5,1.8c0.1,0.1,0.2,0.3,0.4,0.7c0.2,0.3,0.3,0.6,0.5,0.9c0.2,0.4,0.3,0.8,0.6,1.3
				c0,0.7-0.5,1.1-1.4,1.1c-0.2,0-0.6-0.2-1-0.5c-0.5-0.4-1-0.8-1.8-1.2c-0.7-0.4-1.6-0.8-2.6-1.2s-2.2-0.5-3.5-0.5l-1.1,0.3
				c-0.2,0.3-0.4,0.6-0.7,0.9c-0.2,0.2-0.3,0.4-0.3,0.6v0.5c-0.1,0.3-0.2,0.6-0.2,0.9c-0.1,0.2-0.1,0.5-0.2,0.7
				c0,0.2-0.1,0.4-0.1,0.5v4.1c0,0.6,0.1,1.1,0.3,1.6c0.2,0.5,0.6,0.8,1.1,0.8c0.1,0,0.3,0,0.6-0.1c0.3,0,0.6-0.1,0.9-0.2
				c0.3-0.1,0.7-0.2,1.1-0.2h1.1c0.3,0,0.6-0.1,0.8-0.2c0.2-0.2,0.5-0.3,0.7-0.5c0.2-0.2,0.4-0.3,0.7-0.5c0.2-0.2,0.4-0.2,0.7-0.2
				c0.1,0,0.2,0.1,0.4,0.2c0.2,0.2,0.3,0.3,0.5,0.5l0.6,0.7v3.8c0,1.1-0.5,1.6-1.4,1.6c-0.4,0-0.8-0.1-1.1-0.3
				c-0.3-0.2-0.6-0.4-0.8-0.5c-0.4-0.2-0.8-0.3-1.1-0.5c-0.3-0.2-0.6-0.3-1.1-0.3h-0.9h-1.1c-1,0-1.6,0.2-1.8,0.5
				c-0.3,0.3-0.4,1-0.4,2.1v1.4c0.1,0.5,0.2,1.1,0.2,1.6c0,0.5,0.1,1,0.2,1.5c0.1,0.5,0.3,0.8,0.5,1.2c0.3,0.3,0.7,0.5,1.3,0.7h3.2
				c0.5,0,1.1-0.1,1.7-0.3c0.6-0.2,1.3-0.5,1.9-0.8c0.6-0.2,1.2-0.4,1.8-0.6c0.6-0.2,1.1-0.3,1.5-0.3c0.2,0.1,0.3,0.2,0.5,0.4
				c0.1,0.1,0.2,0.2,0.3,0.3s0.2,0.2,0.2,0.3c0,0.3-0.1,0.5-0.3,0.7c-0.2,0.2-0.4,0.5-0.7,0.7c-0.5,0.5-0.9,1-1.1,1.5
				c-0.2,0.5-0.4,1-0.7,1.4c-0.2,0.4-0.5,0.8-0.8,1.1c-0.3,0.3-0.8,0.4-1.4,0.4c-0.2,0-0.4,0-0.6-0.1c-0.2-0.1-0.4-0.1-0.6-0.2
				c-0.2-0.1-0.5-0.2-0.7-0.2c-0.3-0.1-0.6-0.1-1.1-0.1l-5.5,0.2l-1.9,0.5h-3h-1.7l-1.1,0.3l-1.7,0.1c-0.2,0-0.4-0.1-0.6-0.2
				c-0.2-0.2-0.4-0.3-0.6-0.5c-0.2-0.2-0.4-0.4-0.5-0.6c-0.1-0.2-0.2-0.4-0.2-0.5c0-0.9,0.7-1.4,2.1-1.4c0.3-0.1,0.6-0.2,0.9-0.4
				c0.6-0.3,1-0.5,1.4-0.6c0.8-0.2,1.3-0.4,1.6-0.7c0.3-0.3,0.4-1.1,0.4-2.4c0-0.2,0.1-0.4,0.2-0.6c0.1-0.2,0.1-0.4-0.2-0.7
				c0-0.2,0-0.4-0.1-0.6c0-0.2-0.1-0.4-0.2-0.6c-0.1-0.2-0.2-0.5-0.2-0.7V26v-2.1v-1.4l0.5-4v-1c0-0.2,0-0.4,0.1-0.5
				c0.1-0.1,0.1-0.2,0.1-0.5v-3V12v-1.7c0-0.3-0.2-0.6-0.6-0.8c-0.4-0.2-0.7-0.3-0.9-0.3H418c-0.7,0-1.2-0.3-1.6-0.9
				c-0.3-0.6-0.5-1.3-0.5-2.1c0-0.2,0.1-0.4,0.3-0.6c0.2-0.2,0.4-0.3,0.7-0.3h1.9h1.1c0.2,0,0.6,0,1.1-0.1c0.5-0.1,1.1-0.1,1.8-0.1
				H426.7z"/>
			<path class="st1" d="M459.6,3.8c0.6,0,1,0.1,1.3,0.4s0.5,0.6,0.7,0.9c0.2,0.4,0.2,0.8,0.3,1.2c0,0.4,0,0.7,0,1v1.1
				c-0.2,0.9-0.6,1.7-1.2,2.4c-0.6,0.7-1.3,1.1-2.1,1.1c-0.6,0-1.2-0.2-1.8-0.5c-0.6-0.4-1.4-0.5-2.2-0.5c-0.8,0-1.7,0.3-2.5,0.9
				c-0.8,0.6-1.5,1.3-2.2,2.1c-0.6,0.8-1.2,1.6-1.6,2.4c-0.4,0.8-0.6,1.5-0.6,1.9v1.6v2.2c0,0.5,0.1,1.2,0.2,2.3
				c0.2,1.1,0.4,2.2,0.7,3.4s0.8,2.2,1.3,3.1c0.5,0.9,1.2,1.3,2.1,1.3l1.1-0.5c0.9,0,1.7-0.1,2.5-0.3c0.8-0.2,1.5-0.6,2.1-1.3
				c0.8-1,1.6-1.8,2.4-2.3c0.2-0.2,0.5-0.3,0.8-0.4c0.3-0.1,0.6-0.1,0.8-0.1c0.1,0.1,0.2,0.2,0.3,0.3c0.2,0.3,0.3,0.6,0.3,0.8
				c0,0.8-0.3,1.8-0.9,2.9c-0.6,1.1-1.3,2.1-2.2,3.1c-0.9,1-1.7,1.8-2.6,2.5c-0.9,0.7-1.6,1-2.2,1h-0.5c-0.5,0.1-1,0.2-1.5,0.3
				c-0.4,0.1-0.8,0.2-1.2,0.2c-0.4,0.1-0.6,0.1-0.8,0.1c-0.3,0-0.7-0.1-1.3-0.4c-0.6-0.3-1.1-0.6-1.7-0.9c-0.6-0.4-1.2-0.7-1.7-1.1
				c-0.5-0.4-0.8-0.8-0.9-1.1c-0.2-0.1-0.4-0.5-0.6-1.1s-0.5-1.3-0.7-2.1c-0.2-0.8-0.5-1.5-0.6-2.3c-0.2-0.8-0.3-1.3-0.3-1.7v-1.8
				c-0.1-0.2-0.2-0.4-0.3-0.6c-0.2-0.4-0.3-0.7-0.3-1c0.1-0.5,0.2-0.9,0.3-1.3c0.1-0.3,0.2-0.7,0.2-1.1s0.1-0.7,0.1-0.9v-1.3
				c0-0.1,0-0.3-0.1-0.4s-0.2-0.4-0.2-0.5c-0.1-0.2-0.2-0.4-0.3-0.6l0.6-1.8v-1.1c0.3-0.6,0.6-1.2,0.9-1.8c0.2-0.5,0.5-0.9,0.7-1.3
				c0.2-0.4,0.5-0.7,0.7-0.9c0.1-0.7,0.4-1.4,0.9-1.9c0.5-0.6,1-1.1,1.6-1.6c0.6-0.5,1.3-0.9,2-1.4s1.4-0.8,2.2-1.3
				c0.4-0.1,0.8-0.2,1.3-0.3c0.3-0.1,0.6-0.2,0.9-0.2c0.3-0.1,0.5-0.1,0.7-0.1h1.1h2.2L459.6,3.8z"/>
			<path class="st1" d="M499.1,3.3c0.1,0,0.2,0.1,0.4,0.4c0.1,0.3,0.3,0.6,0.4,1c0.1,0.4,0.2,0.8,0.3,1.1s0.1,0.6,0.1,0.8v4.1
				c0,0.2,0,0.4,0,0.9c0,0.4-0.1,0.8-0.2,1.3c-0.1,0.4-0.3,0.8-0.5,1.2c-0.2,0.3-0.5,0.5-0.9,0.5c-0.6,0-1.1-0.1-1.4-0.4
				c-0.3-0.3-0.5-0.6-0.6-1.1c-0.1-0.4-0.2-0.9-0.3-1.4s-0.2-1-0.4-1.4c-0.2-0.4-0.5-0.8-0.9-1.1c-0.4-0.3-1-0.4-1.8-0.4h-3.1
				c-0.2,0-0.4,0-0.6,0.1c-0.2,0-0.4,0.1-0.6,0.2c-0.2,0.1-0.5,0.2-0.7,0.2c-0.8,0-1.4,0.3-1.9,0.8c-0.4,0.5-0.7,1.1-0.7,1.9v2.7
				c0,0.3,0,0.6,0,0.8c0,0.2,0.1,0.5,0.3,0.7l-0.3,2.2v9.2c0,0.8,0.1,1.4,0.2,1.9c0.1,0.5,0.3,0.9,0.5,1.2c0.2,0.3,0.4,0.6,0.6,0.8
				c0.2,0.2,0.4,0.4,0.6,0.6c0.6,0.2,1.1,0.4,1.5,0.5s1,0.3,1.7,0.3c1.1,0.2,2,0.5,2.6,1.1s0.9,1,0.9,1.6c0,0.6-0.2,1.1-0.6,1.5
				s-1.1,0.8-2.1,0.9c-0.3,0-0.7-0.1-1-0.2c-0.3-0.1-0.6-0.2-0.9-0.3c-0.3,0-0.7-0.1-1.1-0.1c-0.4,0-0.8,0-1.3,0
				c-0.4,0-0.9-0.1-1.3-0.1c-0.4-0.1-0.8-0.2-1.1-0.4h-0.3h-5.1c-0.2,0-0.7,0.1-1.4,0.3s-1.5,0.3-2.4,0.3c-0.6,0-1.2,0-1.7-0.1
				c-0.4,0-0.8-0.1-1.3-0.1c-0.4,0-0.7,0-0.9,0c-0.2,0-0.3,0.1-0.5,0.2c-0.1,0.2-0.5,0.2-1.1,0.2c-0.1,0-0.2-0.1-0.2-0.2
				c-0.1-0.1-0.1-0.2-0.2-0.3c0-0.1-0.1-0.2-0.1-0.4c0.2-0.4,0.3-0.8,0.6-1.3c0.2-0.3,0.4-0.7,0.7-1.1c0.2-0.4,0.5-0.7,0.8-1
				c0.5-0.2,1-0.4,1.5-0.5c0.4-0.2,0.8-0.3,1.1-0.4c0.4-0.1,0.6-0.2,0.7-0.2l2.7-0.6c0.3,0,0.5-0.2,0.6-0.5c0.2-0.4,0.3-0.8,0.3-1.2
				c0.1-0.5,0.1-1.1,0.1-1.8v-6c0-0.2,0.1-0.4,0.2-0.8l0.2-0.5v-7.3c0-0.3,0-0.6,0.1-0.9c0.1-0.3,0.1-0.6,0.1-0.9
				c0-0.1-0.1-0.3-0.2-0.5c-0.1-0.2-0.3-0.5-0.5-0.7c-0.2-0.2-0.4-0.4-0.7-0.6s-0.5-0.3-0.8-0.3h-6.3c-0.8,0-1.4,0.1-1.9,0.4
				c-0.4,0.3-0.8,0.6-1,1.1c-0.2,0.4-0.4,0.9-0.5,1.4s-0.3,1-0.4,1.4c-0.2,0.4-0.4,0.8-0.7,1.1s-0.8,0.4-1.4,0.4
				c-0.6,0-1-0.2-1.2-0.7c-0.2-0.4-0.4-0.9-0.4-1.4c0-0.2,0-0.4,0.1-0.7c0-0.3,0.1-0.7,0.1-1c0.1-0.3,0.1-0.7,0.2-1
				c0.1-0.3,0.1-0.5,0.1-0.6l0.7-2.7c0-0.1,0-0.4,0.1-0.8c0.1-0.4,0.2-0.8,0.3-1.3c0.1-0.5,0.3-0.9,0.5-1.2c0.2-0.3,0.4-0.5,0.7-0.5
				c0.5,0,0.9,0.1,1.2,0.3c0.3,0.2,0.6,0.4,0.9,0.6c0.2,0.2,0.5,0.3,0.7,0.5c0.2,0.1,0.6,0.2,1,0.2c0.2,0,0.6,0,1-0.1
				c0.5-0.1,0.8-0.1,1-0.1h1.1c0.1,0.1,0.2,0.1,0.4,0.1c0.2,0,0.3,0,0.5,0.1c0.2,0,0.4,0.1,0.6,0.1h8.6l1.5-0.3l1.6,0.3
				c0.8,0,1.6,0,2.5-0.1c0.9-0.1,1.7-0.1,2.4-0.1h2.7c0.7,0,1.3-0.1,1.8-0.3c0.5-0.2,1-0.4,1.4-0.6c0.4-0.2,0.7-0.4,1-0.6
				C498.8,3.4,499,3.3,499.1,3.3z"/>
		</g>
	</g>
</g>
</svg>
