<svg id="レイヤー_1" xmlns="http://www.w3.org/2000/svg" viewBox="0 0 1368 760"><style>.st1{fill:none;stroke:gray;stroke-width:.5;stroke-miterlimit:10}</style><path d="M939.8 398.6c8.7-10.9 14.8-26.2 14.2-39.8-.7-16.3-6.1-33.2-18.5-44.5-12.3-11.3-27.5-18.5-44.5-18.5-9.9 0-20 2.6-29.1 7.3-.5-1.2-1-2.3-1.5-3.4.2-.7.3-1.4.5-2.1 4.7-2.7 9.1-6 12.8-9.7 10.9-10.9 19.2-28.9 18.5-44.5-.5-10.3-2.8-20.8-7.5-30.1-2.6-11.2-7.8-21.7-16.4-29.6-12.3-11.3-27.5-18.5-44.5-18.5-16.2 0-33.1 7-44.5 18.5-2.9 2.9-5.6 6.2-7.9 9.9-2.6 1.7-5 3.5-7.3 5.5-1.4-14.9-6.9-29.8-18.1-40.2-12.3-11.3-27.5-18.5-44.5-18.5-1.6 0-3.2.1-4.8.2-2.3-1.8-4.8-3.5-7.3-5-1.6-2-3.3-3.9-5.3-5.7-12.3-11.3-27.5-18.5-44.5-18.5-16.2 0-33.1 7-44.5 18.5-4.9 4.9-9.3 11.3-12.6 18.2-.9.8-1.7 1.6-2.6 2.4-10.9 10.9-19.2 28.9-18.5 44.5.2 4.9.9 9.9 2 14.8-9.3 10.8-16.1 26.5-15.8 40.6-1.2 1-2.4 2.1-3.5 3.3-8.4 8.4-15.1 20.8-17.5 33.3-3.6 2.3-7 5-10 8-2 2-3.8 4.1-5.6 6.5-9.8 3.1-19 8.5-26.1 15.5-.9.9-1.8 1.8-2.6 2.8-1 .9-2 1.7-2.9 2.7-10.9 10.9-19.2 28.9-18.5 44.5.5 11.1 3.2 22.6 8.8 32.3 1.7 14.3 7.1 28.4 18 38.4 12 11 26.7 18.1 43.3 18.4 1.1 1.2 2.3 2.5 3.5 3.6 6.1 5.6 12.9 10.2 20.3 13.4-2.1 6.3-3.3 12.9-3 19.1.7 16.3 6.1 33.2 18.5 44.5 12.3 11.3 27.5 18.5 44.5 18.5 16.2 0 33.1-7 44.5-18.5 4.2-4.2 8-9.5 11.1-15.3.4-.4.9-.8 1.3-1.2 6.6-6.6 12.1-15.7 15.4-25.3 1.7 2.1 3.5 4.2 5.5 6.1 12.3 11.3 27.5 18.5 44.5 18.5 1.2 0 2.4 0 3.6-.1 11.2 8.6 24.5 13.9 39.1 13.9 4 0 8.1-.4 12.1-1.3 8.5 4.3 17.8 6.8 27.8 6.8 8.1 0 16.5-1.8 24.2-5 3.3.6 6.7.9 10.2.9 16.2 0 33.1-7 44.5-18.5 6.8-6.8 12.6-16.4 15.8-26.5 6.4-3.1 12.3-7.1 17.2-12 10.9-10.9 19.2-28.9 18.5-44.5-.7-12.1-3.8-24.4-10.3-34.6z" opacity=".46" fill="#807226" fill-opacity=".26" id="レイヤー_3"/><g id="レイヤー_2_1_"><path class="st1" d="M62 657h1226"/><g id="tree_main"><g id="tree_main-2"><g id="tree_main-3"><path class="st1" d="M597.5 201.2l8.5.3M597.5 201.2l2.4 2M605.9 201.5l-2.7 1.7M599.9 203.2l1.2 11.6M603.2 203.2l-2.1 11.6M614.7 211.2l5.6 6.4M614.7 211.2l.3 3.1M620.3 217.4l-3.1-.7M615 214.3l-7.6 8.9M617.2 216.7l-9.8 6.5M587.7 215.9l4.9-7M587.7 215.9l3-1M592.5 209v3.2M590.7 214.9l10.5 5.2M592.5 212.2l8.7 7.9M605.7 234.5l-7.9-3M605.7 234.5l-1.7-2.7M597.9 231.6l3.1-.8M604 231.8l2.5-11.4M601 230.8l5.5-10.4M593.6 220.6l2.7 8.1M593.6 220.6l-1 3M596.3 228.5l-2.5-1.9M592.6 223.6l-10.4 5.2M593.8 226.6l-11.6 2.2M573.5 219.2l8.5.3M573.5 219.2l2.4 2M581.9 219.5l-2.7 1.7M575.9 221.2l1.2 11.6M579.2 221.2l-2.1 11.6M590.7 229.2l5.6 6.4M590.7 229.2l.3 3.1M596.3 235.4l-3.1-.7M591 232.3l-7.6 8.9M593.2 234.7l-9.8 6.5M563.7 233.9l4.9-7M563.7 233.9l3-1M568.5 227v3.2M566.7 232.9l10.5 5.2M568.5 230.2l8.7 7.9M581.7 252.5l-7.9-3M581.7 252.5l-1.7-2.7M573.9 249.6l3.1-.8M580 249.8l2.5-11.4M577 248.8l5.5-10.4M569.6 238.6l2.7 8.1M569.6 238.6l-1 3M572.3 246.5l-2.5-1.9M568.6 241.6l-10.4 5.2M569.8 244.6l-11.6 2.2M599.5 236.2l8.5.3M599.5 236.2l2.4 2M607.9 236.5l-2.7 1.7M601.9 238.2l1.2 11.6M605.2 238.2l-2.1 11.6M616.7 246.2l5.6 6.4M616.7 246.2l.3 3.1M622.3 252.5l-3.1-.8M617 249.3l-7.6 8.9M619.2 251.7l-9.8 6.5M589.7 250.9l4.9-7M589.7 250.9l3-1M594.5 244v3.2M592.7 249.9l10.5 5.2M594.5 247.2l8.7 7.9M607.7 269.5l-7.9-3M607.7 269.5l-1.7-2.7M599.9 266.6l3.1-.8M606 266.8l2.5-11.4M603 265.8l5.5-10.4M595.6 255.6l2.7 8.1M595.6 255.6l-1 3M598.3 263.5l-2.5-1.9M594.6 258.6l-10.4 5.2M595.8 261.6l-11.6 2.2M561.5 251.2l8.5.3M561.5 251.2l2.4 2M569.9 251.5l-2.7 1.7M563.9 253.2l1.2 11.6M567.2 253.2l-2.1 11.6M578.7 261.2l5.6 6.4M578.7 261.2l.3 3.1M584.3 267.5l-3.1-.8M579 264.3l-7.6 8.9M581.2 266.7l-9.8 6.5M551.7 265.9l4.9-7M551.7 265.9l3-1M556.5 259v3.2M554.7 264.9l10.5 5.2M556.5 262.2l8.7 7.9M569.7 284.5l-7.9-3M569.7 284.5l-1.7-2.7M561.9 281.6l3.1-.8M568 281.8l2.5-11.4M565 280.8l5.5-10.4M557.6 270.6l2.7 8.1M557.6 270.6l-1 3M560.3 278.5l-2.5-1.9M556.6 273.6l-10.4 5.2M557.8 276.6l-11.6 2.2M629.5 209.2l8.5.3M629.5 209.2l2.4 2M637.9 209.5l-2.7 1.7M631.9 211.2l1.2 11.6M635.2 211.2l-2.1 11.6M646.7 219.2l5.6 6.4M646.7 219.2l.3 3.1M652.3 225.4l-3.1-.7M647 222.3l-7.6 8.9M649.2 224.7l-9.8 6.5M619.7 223.9l4.9-7M619.7 223.9l3-1M624.5 217v3.2M622.7 222.9l10.5 5.2M624.5 220.2l8.7 7.9M637.7 242.5l-7.9-3M637.7 242.5l-1.7-2.7M629.9 239.6l3.1-.8M636 239.8l2.5-11.4M633 238.8l5.5-10.4M625.6 228.6l2.7 8.1M625.6 228.6l-1 3M628.3 236.5l-2.5-1.9M624.6 231.6l-10.4 5.2M625.8 234.6l-11.6 2.2M619.5 181.2l8.5.3M619.5 181.2l2.4 2M627.9 181.5l-2.7 1.7M621.9 183.2l1.2 11.6M625.2 183.2l-2.1 11.6M636.7 191.2l5.6 6.4M636.7 191.2l.3 3.1M642.3 197.4l-3.1-.7M637 194.3l-7.6 8.9M639.2 196.7l-9.8 6.5M609.7 195.9l4.9-7M609.7 195.9l3-1M614.5 189v3.2M612.7 194.9l10.5 5.2M614.5 192.2l8.7 7.9M627.7 214.5l-7.9-3M627.7 214.5l-1.7-2.7M619.9 211.6l3.1-.8M626 211.8l2.5-11.4M623 210.8l5.5-10.4M615.6 200.6l2.7 8.1M615.6 200.6l-1 3M618.3 208.5l-2.5-1.9M614.6 203.6l-10.4 5.2M615.8 206.6l-11.6 2.2M587.5 269.2l8.5.3M587.5 269.2l2.4 2M595.9 269.5l-2.7 1.7M589.9 271.2l1.2 11.6M593.2 271.2l-2.1 11.6M604.7 279.2l5.6 6.4M604.7 279.2l.3 3.1M610.3 285.5l-3.1-.8M605 282.3l-7.6 8.9M607.2 284.7l-9.8 6.5M577.7 283.9l4.9-7M577.7 283.9l3-1M582.5 277v3.2M580.7 282.9l10.5 5.2M582.5 280.2l8.7 7.9M595.7 302.5l-7.9-3M595.7 302.5l-1.7-2.7M587.9 299.6l3.1-.8M594 299.8l2.5-11.4M591 298.8l5.5-10.4M583.6 288.6l2.7 8.1M583.6 288.6l-1 3M586.3 296.5l-2.5-1.9M582.6 291.6l-10.4 5.2M583.8 294.6l-11.6 2.2M533.5 274.2l8.5.3M533.5 274.2l2.4 2M541.9 274.5l-2.7 1.7M535.9 276.2l1.2 11.6M539.2 276.2l-2.1 11.6M550.7 284.2l5.6 6.4M550.7 284.2l.3 3.1M556.3 290.5l-3.1-.8M551 287.3l-7.6 8.9M553.2 289.7l-9.8 6.5M523.7 288.9l4.9-7M523.7 288.9l3-1M528.5 282v3.2M526.7 287.9l10.5 5.2M528.5 285.2l8.7 7.9M541.7 307.5l-7.9-3M541.7 307.5l-1.7-2.7M533.9 304.6l3.1-.8M540 304.8l2.5-11.4M537 303.8l5.5-10.4M529.6 293.6l2.7 8.1M529.6 293.6l-1 3M532.3 301.5l-2.5-1.9M528.6 296.6l-10.4 5.2M529.8 299.6l-11.6 2.2M557.5 289.2l8.5.3M557.5 289.2l2.4 2M565.9 289.5l-2.7 1.7M559.9 291.2l1.2 11.6M563.2 291.2l-2.1 11.6M574.7 299.2l5.6 6.4M574.7 299.2l.3 3.1M580.3 305.5l-3.1-.8M575 302.3l-7.6 8.9M577.2 304.7l-9.8 6.5M547.7 303.9l4.9-7M547.7 303.9l3-1M552.5 297v3.2M550.7 302.9l10.5 5.2M552.5 300.2l8.7 7.9M565.7 322.5l-7.9-3M565.7 322.5l-1.7-2.7M557.9 319.6l3.1-.8M564 319.8l2.5-11.4M561 318.8l5.5-10.4M553.6 308.6l2.7 8.1M553.6 308.6l-1 3M556.3 316.5l-2.5-1.9M552.6 311.6l-10.4 5.2M553.8 314.6l-11.6 2.2M532.5 309.2l8.5.3M532.5 309.2l2.4 2M540.9 309.5l-2.7 1.7M534.9 311.2l1.2 11.6M538.2 311.2l-2.1 11.6M549.7 319.2l5.6 6.4M549.7 319.2l.3 3.1M555.3 325.5l-3.1-.8M550 322.3l-7.6 8.9M552.2 324.7l-9.8 6.5M522.7 323.9l4.9-7M522.7 323.9l3-1M527.5 317v3.2M525.7 322.9l10.5 5.2M527.5 320.2l8.7 7.9M540.7 342.5l-7.9-3M540.7 342.5l-1.7-2.7M532.9 339.6l3.1-.8M539 339.8l2.5-11.4M536 338.8l5.5-10.4M528.6 328.6l2.7 8.1M528.6 328.6l-1 3M531.3 336.5l-2.5-1.9M527.6 331.6l-10.4 5.2M528.8 334.6l-11.6 2.2M504.5 296.2l8.5.3M504.5 296.2l2.4 2M512.9 296.5l-2.7 1.7M506.9 298.2l1.2 11.6M510.2 298.2l-2.1 11.6M521.7 306.2l5.6 6.4M521.7 306.2l.3 3.1M527.3 312.5l-3.1-.8M522 309.3l-7.6 8.9M524.2 311.7l-9.8 6.5M494.7 310.9l4.9-7M494.7 310.9l3-1M499.5 304v3.2M497.7 309.9l10.4 5.2M499.5 307.2l8.6 7.9M512.7 329.5l-7.9-3M512.7 329.5l-1.7-2.7M504.9 326.6l3.1-.8M511 326.8l2.5-11.4M508 325.8l5.5-10.4M500.6 315.6l2.7 8.1M500.6 315.6l-1 3M503.3 323.5l-2.5-1.9M499.6 318.6l-10.4 5.2M500.8 321.6l-11.6 2.2M506.5 332.2l8.5.3M506.5 332.2l2.4 2M514.9 332.5l-2.7 1.7M508.9 334.2l1.2 11.6M512.2 334.2l-2.1 11.6M523.7 342.2l5.6 6.4M523.7 342.2l.3 3.1M529.3 348.5l-3.1-.8M524 345.3l-7.6 8.9M526.2 347.7l-9.8 6.5M496.7 346.9l4.9-7M496.7 346.9l3-1M501.5 340v3.2M499.7 345.9l10.4 5.2M501.5 343.2l8.6 7.9M514.7 365.5l-7.9-3M514.7 365.5l-1.7-2.7M506.9 362.6l3.1-.8M513 362.8l2.5-11.4M510 361.8l5.5-10.4M502.6 351.6l2.7 8.1M502.6 351.6l-1 3M505.3 359.5l-2.5-1.9M501.6 354.6l-10.4 5.2M502.8 357.6l-11.6 2.2M534.5 348.2l8.5.3M534.5 348.2l2.4 2M542.9 348.5l-2.7 1.7M536.9 350.2l1.2 11.6M540.2 350.2l-2.1 11.6M551.7 358.2l5.6 6.4M551.7 358.2l.3 3.1M557.3 364.5l-3.1-.8M552 361.3l-7.6 8.9M554.2 363.7l-9.8 6.5M524.7 362.9l4.9-7M524.7 362.9l3-1M529.5 356v3.2M527.7 361.9l10.5 5.2M529.5 359.2l8.7 7.9M542.7 381.5l-7.9-3M542.7 381.5l-1.7-2.7M534.9 378.6l3.1-.8M541 378.8l2.5-11.4M538 377.8l5.5-10.4M530.6 367.6l2.7 8.1M530.6 367.6l-1 3M533.3 375.5l-2.5-1.9M529.6 370.6l-10.4 5.2M530.8 373.6l-11.6 2.2M481.5 351.2l8.5.3M481.5 351.2l2.4 2M489.9 351.5l-2.7 1.7M483.9 353.2l1.2 11.6M487.2 353.2l-2.1 11.6M498.7 361.2l5.7 6.4M498.7 361.2l.3 3.1M504.3 367.5l-3.1-.8M499 364.3l-7.6 8.9M501.2 366.7l-9.8 6.5M471.7 365.9l4.9-7M471.7 365.9l3-1M476.5 359v3.2M474.7 364.9l10.4 5.2M476.5 362.2l8.6 7.9M489.7 384.5l-7.9-3M489.7 384.5l-1.7-2.7M481.9 381.6l3.1-.8M488 381.8l2.5-11.4M485 380.8l5.5-10.4M477.6 370.6l2.7 8.1M477.6 370.6l-1 3M480.3 378.5l-2.5-1.9M476.6 373.6l-10.4 5.2M477.8 376.6l-11.6 2.2M507.5 372.2l8.5.3M507.5 372.2l2.4 2M515.9 372.5l-2.7 1.7M509.9 374.2l1.2 11.6M513.2 374.2l-2.1 11.6M524.7 382.2l5.6 6.4M524.7 382.2l.3 3.1M530.3 388.5l-3.1-.8M525 385.3l-7.6 8.9M527.2 387.7l-9.8 6.5M497.7 386.9l4.9-7M497.7 386.9l3-1M502.5 380v3.2M500.7 385.9l10.4 5.2M502.5 383.2l8.6 7.9M515.7 405.5l-7.9-3M515.7 405.5l-1.7-2.7M507.9 402.6l3.1-.8M514 402.8l2.5-11.4M511 401.8l5.5-10.4M503.6 391.6l2.7 8.1M503.6 391.6l-1 3M506.3 399.5l-2.5-1.9M502.6 394.6l-10.4 5.2M503.8 397.6l-11.6 2.2M480.5 389.2l8.5.3M480.5 389.2l2.4 2M488.9 389.5l-2.7 1.7M482.9 391.2l1.2 11.6M486.2 391.2l-2.1 11.6M497.7 399.2l5.7 6.4M497.7 399.2l.3 3.1M503.3 405.5l-3.1-.8M498 402.3l-7.6 8.9M500.2 404.7l-9.8 6.5M470.7 403.9l4.9-7M470.7 403.9l3-1M475.5 397v3.2M473.7 402.9l10.4 5.2M475.5 400.2l8.6 7.9M488.7 422.5l-7.9-3M488.7 422.5l-1.7-2.7M480.9 419.6l3.1-.8M487 419.8l2.5-11.4M484 418.8l5.5-10.4M476.6 408.6l2.7 8.1M476.6 408.6l-1 3M479.3 416.5l-2.5-1.9M475.6 411.6l-10.4 5.2M476.8 414.6l-11.6 2.2M503.5 413.2l8.5.3M503.5 413.2l2.4 2M511.9 413.5l-2.7 1.7M505.9 415.2l1.2 11.6M509.2 415.2l-2.1 11.6M520.7 423.2l5.6 6.4M520.7 423.2l.3 3.1M526.3 429.5l-3.1-.8M521 426.3l-7.6 8.9M523.2 428.7l-9.8 6.5M493.7 427.9l4.9-7M493.7 427.9l3-1M498.5 421v3.2M496.7 426.9l10.4 5.2M498.5 424.2l8.6 7.9M511.7 446.5l-7.9-3M511.7 446.5l-1.7-2.7M503.9 443.6l3.1-.8M510 443.8l2.5-11.4M507 442.8l5.5-10.4M499.6 432.6l2.7 8.1M499.6 432.6l-1 3M502.3 440.5l-2.5-1.9M498.6 435.6l-10.4 5.2M499.8 438.6l-11.6 2.2M656.5 177.2l8.5.3M656.5 177.2l2.4 2M664.9 177.5l-2.7 1.7M658.9 179.2l1.2 11.6M662.2 179.2l-2.1 11.6M673.7 187.2l5.6 6.4M673.7 187.2l.3 3.1M679.3 193.4l-3.1-.7M674 190.3l-7.6 8.9M676.2 192.7l-9.8 6.5M646.7 191.9l4.9-7M646.7 191.9l3-1M651.5 185v3.2M649.7 190.9l10.5 5.2M651.5 188.2l8.7 7.9M664.7 210.5l-7.9-3M664.7 210.5l-1.7-2.7M656.9 207.6l3.1-.8M663 207.8l2.5-11.4M660 206.8l5.5-10.4M652.6 196.6l2.7 8.1M652.6 196.6l-1 3M655.3 204.5l-2.5-1.9M651.6 199.6l-10.4 5.2M652.8 202.6l-11.6 2.2M676.5 203.2l8.5.3M676.5 203.2l2.4 2M684.9 203.5l-2.7 1.7M678.9 205.2l1.2 11.6M682.2 205.2l-2.1 11.6M693.7 213.2l5.6 6.4M693.7 213.2l.3 3.1M699.3 219.4l-3.1-.7M694 216.3l-7.6 8.9M696.2 218.7l-9.8 6.5M666.7 217.9l4.9-7M666.7 217.9l3-1M671.5 211v3.2M669.7 216.9l10.5 5.2M671.5 214.2l8.7 7.9M684.7 236.5l-7.9-3M684.7 236.5l-1.7-2.7M676.9 233.6l3.1-.8M683 233.8l2.5-11.4M680 232.8l5.5-10.4M672.6 222.6l2.7 8.1M672.6 222.6l-1 3M675.3 230.5l-2.5-1.9M671.6 225.6l-10.4 5.2M672.8 228.6l-11.6 2.2M700.5 228.2l8.5.3M700.5 228.2l2.4 2M708.9 228.5l-2.7 1.7M702.9 230.2l1.2 11.6M706.2 230.2l-2.1 11.6M717.7 238.2l5.6 6.4M717.7 238.2l.3 3.1M723.3 244.4l-3.1-.7M718 241.3l-7.6 8.9M720.2 243.7l-9.8 6.5M690.7 242.9l4.9-7M690.7 242.9l3-1M695.5 236v3.2M693.7 241.9l10.5 5.2M695.5 239.2l8.7 7.9M708.7 261.5l-7.9-3M708.7 261.5l-1.7-2.7M700.9 258.6l3.1-.8M707 258.8l2.5-11.4M704 257.8l5.5-10.4M696.6 247.6l2.7 8.1M696.6 247.6l-1 3M699.3 255.5l-2.5-1.9M695.6 250.6l-10.4 5.2M696.8 253.6l-11.6 2.2M731.5 247.2l8.5.3M731.5 247.2l2.4 2M739.9 247.5l-2.7 1.7M733.9 249.2l1.2 11.6M737.2 249.2l-2.1 11.6M748.7 257.2l5.6 6.4M748.7 257.2l.3 3.1M754.3 263.5l-3.1-.8M749 260.3l-7.6 8.9M751.2 262.7l-9.8 6.5M721.7 261.9l4.9-7M721.7 261.9l3-1M726.5 255v3.2M724.7 260.9l10.5 5.2M726.5 258.2l8.7 7.9M739.7 280.5l-7.9-3M739.7 280.5l-1.7-2.7M731.9 277.6l3.1-.8M738 277.8l2.5-11.4M735 276.8l5.5-10.4M727.6 266.6l2.7 8.1M727.6 266.6l-1 3M730.3 274.5l-2.5-1.9M726.6 269.6l-10.4 5.2M727.8 272.6l-11.6 2.2M652.5 233.2l8.5.3M652.5 233.2l2.4 2M660.9 233.5l-2.7 1.7M654.9 235.2l1.2 11.6M658.2 235.2l-2.1 11.6M669.7 243.2l5.6 6.4M669.7 243.2l.3 3.1M675.3 249.4l-3.1-.7M670 246.3l-7.6 8.9M672.2 248.7l-9.8 6.5M642.7 247.9l4.9-7M642.7 247.9l3-1M647.5 241v3.2M645.7 246.9l10.5 5.2M647.5 244.2l8.7 7.9M660.7 266.5l-7.9-3M660.7 266.5l-1.7-2.7M652.9 263.6l3.1-.8M659 263.8l2.5-11.4M656 262.8l5.5-10.4M648.6 252.6l2.7 8.1M648.6 252.6l-1 3M651.3 260.5l-2.5-1.9M647.6 255.6l-10.4 5.2M648.8 258.6l-11.6 2.2M764.5 262.2l8.5.3M764.5 262.2l2.4 2M772.9 262.5l-2.7 1.7M766.9 264.2l1.2 11.6M770.2 264.2l-2.1 11.6M781.7 272.2l5.6 6.4M781.7 272.2l.3 3.1M787.3 278.5l-3.1-.8M782 275.3l-7.6 8.9M784.2 277.7l-9.8 6.5M754.7 276.9l4.9-7M754.7 276.9l3-1M759.5 270v3.2M757.7 275.9l10.5 5.2M759.5 273.2l8.7 7.9M772.7 295.5l-7.9-3M772.7 295.5l-1.7-2.7M764.9 292.6l3.1-.8M771 292.8l2.5-11.4M768 291.8l5.5-10.4M760.6 281.6l2.7 8.1M760.6 281.6l-1 3M763.3 289.5l-2.5-1.9M759.6 284.6l-10.4 5.2M760.8 287.6l-11.6 2.2M777.7 292l6.1 6M777.7 292l.4 3.1M783.7 297.9l-3.2-.6M778.1 295.1l-6.9 9.4M780.5 297.3l-9.3 7.2M783.7 311l-.2 8.5M783.7 311l-2 2.5M783.6 319.4l-1.8-2.7M781.7 313.5l-11.5 1.5M781.8 316.7l-11.6-1.7M760.6 296.3l8.2-1.9M760.6 296.3l2.8 1.3M768.7 294.4l-2.2 2.3M763.4 297.6l4.2 10.9M766.5 296.7l1.1 11.8M761.4 322.1l-3.9-7.5M761.4 322.1l.5-3.1M757.5 314.7l2.8 1.5M761.9 319l9.5-6.7M760.3 316.2l11.1-3.9M761.7 303.7l-3.4 7.8M761.7 303.7l-2.7 1.5M758.4 311.4l-.6-3.2M759 305.2l-11.2-3.1M757.8 308.2l-10-6.1M766.5 323.2l8.5.3M766.5 323.2l2.4 2M774.9 323.5l-2.7 1.7M768.9 325.2l1.2 11.6M772.2 325.2l-2.1 11.6M783.7 333.2l5.6 6.4M783.7 333.2l.3 3.1M789.3 339.5l-3.1-.8M784 336.3l-7.6 8.9M786.2 338.7l-9.8 6.5M756.7 337.9l4.9-7M756.7 337.9l3-1M761.5 331v3.2M759.7 336.9l10.5 5.2M761.5 334.2l8.7 7.9M774.7 356.5l-7.9-3M774.7 356.5l-1.7-2.7M766.9 353.6l3.1-.8M773 353.8l2.5-11.4M770 352.8l5.5-10.4M762.6 342.6l2.7 8.1M762.6 342.6l-1 3M765.3 350.5l-2.5-1.9M761.6 345.6l-10.4 5.2M762.8 348.6l-11.6 2.2M724.5 278.2l8.5.3M724.5 278.2l2.4 2M732.9 278.5l-2.7 1.7M726.9 280.2l1.2 11.6M730.2 280.2l-2.1 11.6M741.7 288.2l5.6 6.4M741.7 288.2l.3 3.1M747.3 294.5l-3.1-.8M742 291.3l-7.6 8.9M744.2 293.7l-9.8 6.5M714.7 292.9l4.9-7M714.7 292.9l3-1M719.5 286v3.2M717.7 291.9l10.5 5.2M719.5 289.2l8.7 7.9M732.7 311.5l-7.9-3M732.7 311.5l-1.7-2.7M724.9 308.6l3.1-.8M731 308.8l2.5-11.4M728 307.8l5.5-10.4M720.6 297.6l2.7 8.1M720.6 297.6l-1 3M723.3 305.5l-2.5-1.9M719.6 300.6l-10.4 5.2M720.8 303.6l-11.6 2.2M753.5 355.2l8.5.3M753.5 355.2l2.4 2M761.9 355.5l-2.7 1.7M755.9 357.2l1.2 11.6M759.2 357.2l-2.1 11.6M770.7 365.2l5.6 6.4M770.7 365.2l.3 3.1M776.3 371.5l-3.1-.8M771 368.3l-7.6 8.9M773.2 370.7l-9.8 6.5M743.7 369.9l4.9-7M743.7 369.9l3-1M748.5 363v3.2M746.7 368.9l10.5 5.2M748.5 366.2l8.7 7.9M761.7 388.5l-7.9-3M761.7 388.5l-1.7-2.7M753.9 385.6l3.1-.8M760 385.8l2.5-11.4M757 384.8l5.5-10.4M749.6 374.6l2.7 8.1M749.6 374.6l-1 3M752.3 382.5l-2.5-1.9M748.6 377.6l-10.4 5.2M749.8 380.6l-11.6 2.2M781.5 367.2l8.5.3M781.5 367.2l2.4 2M789.9 367.5l-2.7 1.7M783.9 369.2l1.2 11.6M787.2 369.2l-2.1 11.6M798.7 377.2l5.6 6.4M798.7 377.2l.3 3.1M804.3 383.5l-3.1-.8M799 380.3l-7.6 8.9M801.2 382.7l-9.8 6.5M771.7 381.9l4.9-7M771.7 381.9l3-1M776.5 375v3.2M774.7 380.9l10.5 5.2M776.5 378.2l8.7 7.9M789.7 400.5l-7.9-3M789.7 400.5l-1.7-2.7M781.9 397.6l3.1-.8M788 397.8l2.5-11.4M785 396.8l5.5-10.4M777.6 386.6l2.7 8.1M777.6 386.6l-1 3M780.3 394.5l-2.5-1.9M776.6 389.6l-10.4 5.2M777.8 392.6l-11.6 2.2M743.9 310.1l6.7 5.2M743.9 310.1l.8 3M750.5 315.2l-3.2-.2M744.7 313.1l-5.8 10.2M747.3 315l-8.4 8.3M752 328.3l.9 8.4M752 328.3l-1.6 2.7M753 336.6l-2.1-2.4M750.4 331l-11.3 2.8M750.9 334.2l-11.8-.4M727.4 316.4l8-2.9M727.4 316.4l3 .9M735.2 313.5l-1.8 2.6M730.4 317.3l5.4 10.3M733.4 316.1l2.4 11.5M731.2 342l-4.7-7.1M731.2 342l.2-3.2M726.5 335l3 1.2M731.4 338.8l8.6-7.8M729.5 336.2L740 331M729.4 323.6l-2.5 8.2M729.4 323.6l-2.5 1.9M727 331.6l-1-3M726.9 325.5l-11.6-1.8M726 328.6l-10.7-4.9M796.5 395.2l8.5.3M796.5 395.2l2.4 2M804.9 395.5l-2.7 1.7M798.9 397.2l1.2 11.6M802.2 397.2l-2.1 11.6M813.7 405.2l5.6 6.4M813.7 405.2l.3 3.1M819.3 411.5l-3.1-.8M814 408.3l-7.6 8.9M816.2 410.7l-9.8 6.5M786.7 409.9l4.9-7M786.7 409.9l3-1M791.5 403v3.2M789.7 408.9l10.5 5.2M791.5 406.2l8.7 7.9M804.7 428.5l-7.9-3M804.7 428.5l-1.7-2.7M796.9 425.6l3.1-.8M803 425.8l2.5-11.4M800 424.8l5.5-10.4M792.6 414.6l2.7 8.1M792.6 414.6l-1 3M795.3 422.5l-2.5-1.9M791.6 417.6l-10.4 5.2M792.8 420.6l-11.6 2.2M671.5 259.5l7.5-4.1M671.5 259.5l3.1.5M678.8 255.4l-1.4 2.9M674.6 260l7 9.3M677.4 258.3l4.2 11M691.4 259.2l8.1 2.6M691.4 259.2l1.8 2.6M699.4 261.7l-3.1 1M693.2 261.8l-1.9 11.5M696.3 262.7l-5 10.6M670.7 277.1l.5-8.5M670.7 277.1l2-2.3M671.2 268.8l1.6 2.7M672.7 274.8l11.7-.9M672.8 271.5l11.6 2.4M695.6 283.8l-8.3 1.6M695.6 283.8l-2.8-1.4M687.4 285.4l2.3-2.3M692.8 282.4l-3.7-11M689.7 283.1l-.6-11.7M678.1 278.1l6.5 5.6M678.1 278.1l.7 3.1M684.5 283.6l-3.2-.4M678.8 281.2l-6.3 9.9M681.3 283.2l-8.8 7.9M788.5 428.2l8.5.3M788.5 428.2l2.4 2M796.9 428.5l-2.7 1.7M790.9 430.2l1.2 11.6M794.2 430.2l-2.1 11.6M805.7 438.2l5.6 6.4M805.7 438.2l.3 3.1M811.3 444.5l-3.1-.8M806 441.3l-7.6 8.9M808.2 443.7l-9.8 6.5M778.7 442.9l4.9-7M778.7 442.9l3-1M783.5 436v3.2M781.7 441.9l10.5 5.2M783.5 439.2l8.7 7.9M796.7 461.5l-7.9-3M796.7 461.5l-1.7-2.7M788.9 458.6l3.1-.8M795 458.8l2.5-11.4M792 457.8l5.5-10.4M784.6 447.6l2.7 8.1M784.6 447.6l-1 3M787.3 455.5l-2.5-1.9M783.6 450.6l-10.4 5.2M784.8 453.6l-11.6 2.2M536.5 418.2l8.5.3M536.5 418.2l2.4 2M544.9 418.5l-2.7 1.7M538.9 420.2l1.2 11.6M542.2 420.2l-2.1 11.6M553.7 428.2l5.6 6.4M553.7 428.2l.3 3.1M559.3 434.5l-3.1-.8M554 431.3l-7.6 8.9M556.2 433.7l-9.8 6.5M526.7 432.9l4.9-7M526.7 432.9l3-1M531.5 426v3.2M529.7 431.9l10.5 5.2M531.5 429.2l8.7 7.9M544.7 451.5l-7.9-3M544.7 451.5l-1.7-2.7M536.9 448.6l3.1-.8M543 448.8l2.5-11.4M540 447.8l5.5-10.4M532.6 437.6l2.7 8.1M532.6 437.6l-1 3M535.3 445.5l-2.5-1.9M531.6 440.6l-10.4 5.2M532.8 443.6l-11.6 2.2M562.5 396.2l8.5.3M562.5 396.2l2.4 2M570.9 396.5l-2.7 1.7M564.9 398.2l1.2 11.6M568.2 398.2l-2.1 11.6M579.7 406.2l5.6 6.4M579.7 406.2l.3 3.1M585.3 412.5l-3.1-.8M580 409.3l-7.6 8.9M582.2 411.7l-9.8 6.5M552.7 410.9l4.9-7M552.7 410.9l3-1M557.5 404v3.2M555.7 409.9l10.5 5.2M557.5 407.2l8.7 7.9M570.7 429.5l-7.9-3M570.7 429.5l-1.7-2.7M562.9 426.6l3.1-.8M569 426.8l2.5-11.4M566 425.8l5.5-10.4M558.6 415.6l2.7 8.1M558.6 415.6l-1 3M561.3 423.5l-2.5-1.9M557.6 418.6l-10.4 5.2M558.8 421.6l-11.6 2.2M573.5 422.2l8.5.3M573.5 422.2l2.4 2M581.9 422.5l-2.7 1.7M575.9 424.2l1.2 11.6M579.2 424.2l-2.1 11.6M590.7 432.2l5.6 6.4M590.7 432.2l.3 3.1M596.3 438.5l-3.1-.8M591 435.3l-7.6 8.9M593.2 437.7l-9.8 6.5M563.7 436.9l4.9-7M563.7 436.9l3-1M568.5 430v3.2M566.7 435.9l10.5 5.2M568.5 433.2l8.7 7.9M581.7 455.5l-7.9-3M581.7 455.5l-1.7-2.7M573.9 452.6l3.1-.8M580 452.8l2.5-11.4M577 451.8l5.5-10.4M569.6 441.6l2.7 8.1M569.6 441.6l-1 3M572.3 449.5l-2.5-1.9M568.6 444.6l-10.4 5.2M569.8 447.6l-11.6 2.2M561.5 453.2l8.5.3M561.5 453.2l2.4 2M569.9 453.5l-2.7 1.7M563.9 455.2l1.2 11.6M567.2 455.2l-2.1 11.6M578.7 463.2l5.6 6.4M578.7 463.2l.3 3.1M584.3 469.5l-3.1-.8M579 466.3l-7.6 8.9M581.2 468.7l-9.8 6.5M551.7 467.9l4.9-7M551.7 467.9l3-1M556.5 461v3.2M554.7 466.9l10.5 5.2M556.5 464.2l8.7 7.9M569.7 486.5l-7.9-3M569.7 486.5l-1.7-2.7M561.9 483.6l3.1-.8M568 483.8l2.5-11.4M565 482.8l5.5-10.4M557.6 472.6l2.7 8.1M557.6 472.6l-1 3M560.3 480.5l-2.5-1.9M556.6 475.6l-10.4 5.2M557.8 478.6l-11.6 2.2M585.5 469.2l8.5.3M585.5 469.2l2.4 2M593.9 469.5l-2.7 1.7M587.9 471.2l1.2 11.6M591.2 471.2l-2.1 11.6M602.7 479.2l5.6 6.4M602.7 479.2l.3 3.1M608.3 485.5l-3.1-.8M603 482.3l-7.6 8.9M605.2 484.7l-9.8 6.5M575.7 483.9l4.9-7M575.7 483.9l3-1M580.5 477v3.2M578.7 482.9l10.5 5.2M580.5 480.2l8.7 7.9M593.7 502.5l-7.9-3M593.7 502.5l-1.7-2.7M585.9 499.6l3.1-.8M592 499.8l2.5-11.4M589 498.8l5.5-10.4M581.6 488.6l2.7 8.1M581.6 488.6l-1 3M584.3 496.5l-2.5-1.9M580.6 491.6l-10.4 5.2M581.8 494.6l-11.6 2.2M607.5 484.2l8.5.3M607.5 484.2l2.4 2M615.9 484.5l-2.7 1.7M609.9 486.2l1.2 11.6M613.2 486.2l-2.1 11.6M624.7 494.2l5.6 6.4M624.7 494.2l.3 3.1M630.3 500.5l-3.1-.8M625 497.3l-7.6 8.9M627.2 499.7l-9.8 6.5M597.7 498.9l4.9-7M597.7 498.9l3-1M602.5 492v3.2M600.7 497.9l10.5 5.2M602.5 495.2l8.7 7.9M615.7 517.5l-7.9-3M615.7 517.5l-1.7-2.7M607.9 514.6l3.1-.8M614 514.8l2.5-11.4M611 513.8l5.5-10.4M603.6 503.6l2.7 8.1M603.6 503.6l-1 3M606.3 511.5l-2.5-1.9M602.6 506.6l-10.4 5.2M603.8 509.6l-11.6 2.2M638.5 482.2l8.5.3M638.5 482.2l2.4 2M646.9 482.5l-2.7 1.7M640.9 484.2l1.2 11.6M644.2 484.2l-2.1 11.6M655.7 492.2l5.6 6.4M655.7 492.2l.3 3.1M661.3 498.5l-3.1-.8M656 495.3l-7.6 8.9M658.2 497.7l-9.8 6.5M628.7 496.9l4.9-7M628.7 496.9l3-1M633.5 490v3.2M631.7 495.9l10.5 5.2M633.5 493.2l8.7 7.9M646.7 515.5l-7.9-3M646.7 515.5l-1.7-2.7M638.9 512.6l3.1-.8M645 512.8l2.5-11.4M642 511.8l5.5-10.4M634.6 501.6l2.7 8.1M634.6 501.6l-1 3M637.3 509.5l-2.5-1.9M633.6 504.6l-10.4 5.2M634.8 507.6l-11.6 2.2M666.5 497.2l8.5.3M666.5 497.2l2.4 2M674.9 497.5l-2.7 1.7M668.9 499.2l1.2 11.6M672.2 499.2l-2.1 11.6M683.7 507.2l5.6 6.4M683.7 507.2l.3 3.1M689.3 513.5l-3.1-.8M684 510.3l-7.6 8.9M686.2 512.7l-9.8 6.5M656.7 511.9l4.9-7M656.7 511.9l3-1M661.5 505v3.2M659.7 510.9l10.5 5.3M661.5 508.2l8.7 8M674.7 530.5l-7.9-3M674.7 530.5l-1.7-2.7M666.9 527.6l3.1-.8M673 527.8l2.5-11.4M670 526.8l5.5-10.4M662.6 516.6l2.7 8.1M662.6 516.6l-1 3M665.3 524.5l-2.5-1.9M661.6 519.6l-10.4 5.2M662.8 522.6l-11.6 2.2M754.5 427.2l8.5.3M754.5 427.2l2.4 2M762.9 427.5l-2.7 1.7M756.9 429.2l1.2 11.6M760.2 429.2l-2.1 11.6M771.7 437.2l5.6 6.4M771.7 437.2l.3 3.1M777.3 443.5l-3.1-.8M772 440.3l-7.6 8.9M774.2 442.7l-9.8 6.5M744.7 441.9l4.9-7M744.7 441.9l3-1M749.5 435v3.2M747.7 440.9l10.5 5.2M749.5 438.2l8.7 7.9M762.7 460.5l-7.9-3M762.7 460.5l-1.7-2.7M754.9 457.6l3.1-.8M761 457.8l2.5-11.4M758 456.8l5.5-10.4M750.6 446.6l2.7 8.1M750.6 446.6l-1 3M753.3 454.5l-2.5-1.9M749.6 449.6l-10.4 5.2M750.8 452.6l-11.6 2.2M728.5 449.2l8.5.3M728.5 449.2l2.4 2M736.9 449.5l-2.7 1.7M730.9 451.2l1.2 11.6M734.2 451.2l-2.1 11.6M745.7 459.2l5.6 6.4M745.7 459.2l.3 3.1M751.3 465.5l-3.1-.8M746 462.3l-7.6 8.9M748.2 464.7l-9.8 6.5M718.7 463.9l4.9-7M718.7 463.9l3-1M723.5 457v3.2M721.7 462.9l10.5 5.2M723.5 460.2l8.7 7.9M736.7 482.5l-7.9-3M736.7 482.5l-1.7-2.7M728.9 479.6l3.1-.8M735 479.8l2.5-11.4M732 478.8l5.5-10.4M724.6 468.6l2.7 8.1M724.6 468.6l-1 3M727.3 476.5l-2.5-1.9M723.6 471.6l-10.4 5.2M724.8 474.6l-11.6 2.2M700.5 470.2l8.5.3M700.5 470.2l2.4 2M708.9 470.5l-2.7 1.7M702.9 472.2l1.2 11.6M706.2 472.2l-2.1 11.6M717.7 480.2l5.6 6.4M717.7 480.2l.3 3.1M723.3 486.5l-3.1-.8M718 483.3l-7.6 8.9M720.2 485.7l-9.8 6.5M690.7 484.9l4.9-7M690.7 484.9l3-1M695.5 478v3.2M693.7 483.9l10.5 5.2M695.5 481.2l8.7 7.9M708.7 503.5l-7.9-3M708.7 503.5l-1.7-2.7M700.9 500.6l3.1-.8M707 500.8l2.5-11.4M704 499.8l5.5-10.4M696.6 489.6l2.7 8.1M696.6 489.6l-1 3M699.3 497.5l-2.5-1.9M695.6 492.6l-10.4 5.2M696.8 495.6l-11.6 2.2M620.5 513.2l8.5.3M620.5 513.2l2.4 2M628.9 513.5l-2.7 1.7M622.9 515.2l1.2 11.6M626.2 515.2l-2.1 11.6M578.5 325.2l8.5.3M578.5 325.2l2.4 2M586.9 325.5l-2.7 1.7M580.9 327.2l1.2 11.6M584.2 327.2l-2.1 11.6M595.7 335.2l5.6 6.4M595.7 335.2l.3 3.1M601.3 341.5l-3.1-.8M596 338.3l-7.6 8.9M598.2 340.7l-9.8 6.5M568.7 339.9l4.9-7M568.7 339.9l3-1M573.5 333v3.2M571.7 338.9l10.5 5.2M573.5 336.2l8.7 7.9M586.7 358.5l-7.9-3M586.7 358.5l-1.7-2.7M578.9 355.6l3.1-.8M585 355.8l2.5-11.4M582 354.8l5.5-10.4M574.6 344.6l2.7 8.1M574.6 344.6l-1 3M577.3 352.5l-2.5-1.9M573.6 347.6l-10.4 5.2M574.8 350.6l-11.6 2.2M564.5 359.2l8.5.3M564.5 359.2l2.4 2M572.9 359.5l-2.7 1.7M566.9 361.2l1.2 11.6M570.2 361.2l-2.1 11.6M581.7 369.2l5.6 6.4M581.7 369.2l.3 3.1M587.3 375.5l-3.1-.8M582 372.3l-7.6 8.9M584.2 374.7l-9.8 6.5M554.7 373.9l4.9-7M554.7 373.9l3-1M559.5 367v3.2M557.7 372.9l10.5 5.2M559.5 370.2l8.7 7.9M572.7 392.5l-7.9-3M572.7 392.5l-1.7-2.7M564.9 389.6l3.1-.8M571 389.8l2.5-11.4M568 388.8l5.5-10.4M560.6 378.6l2.7 8.1M560.6 378.6l-1 3M563.3 386.5l-2.5-1.9M559.6 381.6l-10.4 5.2M560.8 384.6l-11.6 2.2M598.5 355.2l8.5.3M598.5 355.2l2.4 2M606.9 355.5l-2.7 1.7M600.9 357.2l1.2 11.6M604.2 357.2l-2.1 11.6M615.7 365.2l5.6 6.4M615.7 365.2l.3 3.1M621.3 371.5l-3.1-.8M616 368.3l-7.6 8.9M618.2 370.7l-9.8 6.5M588.7 369.9l4.9-7M588.7 369.9l3-1M593.5 363v3.2M591.7 368.9l10.5 5.2M593.5 366.2l8.7 7.9M606.7 388.5l-7.9-3M606.7 388.5l-1.7-2.7M598.9 385.6l3.1-.8M605 385.8l2.5-11.4M602 384.8l5.5-10.4M594.6 374.6l2.7 8.1M594.6 374.6l-1 3M597.3 382.5l-2.5-1.9M593.6 377.6l-10.4 5.2M594.8 380.6l-11.6 2.2M609.5 391.2l8.5.3M609.5 391.2l2.4 2M617.9 391.5l-2.7 1.7M611.9 393.2l1.2 11.6M615.2 393.2l-2.1 11.6M626.7 401.2l5.6 6.4M626.7 401.2l.3 3.1M632.3 407.5l-3.1-.8M627 404.3l-7.6 8.9M629.2 406.7l-9.8 6.5M599.7 405.9l4.9-7M599.7 405.9l3-1M604.5 399v3.2M602.7 404.9l10.5 5.2M604.5 402.2l8.7 7.9M617.7 424.5l-7.9-3M617.7 424.5l-1.7-2.7M609.9 421.6l3.1-.8M616 421.8l2.5-11.4M613 420.8l5.5-10.4M605.6 410.6l2.7 8.1M605.6 410.6l-1 3M608.3 418.5l-2.5-1.9M604.6 413.6l-10.4 5.2M605.8 416.6l-11.6 2.2M638.5 350.2l8.5.3M638.5 350.2l2.4 2M646.9 350.5l-2.7 1.7M640.9 352.2l1.2 11.6M644.2 352.2l-2.1 11.6M655.7 360.2l5.6 6.4M655.7 360.2l.3 3.1M661.3 366.5l-3.1-.8M656 363.3l-7.6 8.9M658.2 365.7l-9.8 6.5M628.7 364.9l4.9-7M628.7 364.9l3-1M633.5 358v3.2M631.7 363.9l10.5 5.2M633.5 361.2l8.7 7.9M646.7 383.5l-7.9-3M646.7 383.5l-1.7-2.7M638.9 380.6l3.1-.8M645 380.8l2.5-11.4M642 379.8l5.5-10.4M634.6 369.6l2.7 8.1M634.6 369.6l-1 3M637.3 377.5l-2.5-1.9M633.6 372.6l-10.4 5.2M634.8 375.6l-11.6 2.2M622.5 310.2l8.5.3M622.5 310.2l2.4 2M630.9 310.5l-2.7 1.7M624.9 312.2l1.2 11.6M628.2 312.2l-2.1 11.6M639.7 320.2l5.6 6.4M639.7 320.2l.3 3.1M645.3 326.5l-3.1-.8M640 323.3l-7.6 8.9M642.2 325.7l-9.8 6.5M612.7 324.9l4.9-7M612.7 324.9l3-1M617.5 318v3.2M615.7 323.9l10.5 5.2M617.5 321.2l8.7 7.9M630.7 343.5l-7.9-3M630.7 343.5l-1.7-2.7M622.9 340.6l3.1-.8M629 340.8l2.5-11.4M626 339.8l5.5-10.4M618.6 329.6l2.7 8.1M618.6 329.6l-1 3M621.3 337.5l-2.5-1.9M617.6 332.6l-10.4 5.2M618.8 335.6l-11.6 2.2M631.5 267.2l8.5.3M631.5 267.2l2.4 2M639.9 267.5l-2.7 1.7M633.9 269.2l1.2 11.6M637.2 269.2l-2.1 11.6M648.7 277.2l5.6 6.4M648.7 277.2l.3 3.1M654.3 283.5l-3.1-.8M649 280.3l-7.6 8.9M651.2 282.7l-9.8 6.5M621.7 281.9l4.9-7M621.7 281.9l3-1M626.5 275v3.2M624.7 280.9l10.5 5.2M626.5 278.2l8.7 7.9M639.7 300.5l-7.9-3M639.7 300.5l-1.7-2.7M631.9 297.6l3.1-.8M638 297.8l2.5-11.4M635 296.8l5.5-10.4M627.6 286.6l2.7 8.1M627.6 286.6l-1 3M630.3 294.5l-2.5-1.9M626.6 289.6l-10.4 5.2M627.8 292.6l-11.6 2.2M658.5 285.2l8.5.3M658.5 285.2l2.4 2M666.9 285.5l-2.7 1.7M660.9 287.2l1.2 11.6M664.2 287.2l-2.1 11.6M675.7 295.2l5.6 6.4M675.7 295.2l.3 3.1M681.3 301.5l-3.1-.8M676 298.3l-7.6 8.9M678.2 300.7l-9.8 6.5M648.7 299.9l4.9-7M648.7 299.9l3-1M653.5 293v3.2M651.7 298.9l10.5 5.2M653.5 296.2l8.7 7.9M666.7 318.5l-7.9-3M666.7 318.5l-1.7-2.7M658.9 315.6l3.1-.8M665 315.8l2.5-11.4M662 314.8l5.5-10.4M654.6 304.6l2.7 8.1M654.6 304.6l-1 3M657.3 312.5l-2.5-1.9M653.6 307.6l-10.4 5.2M654.8 310.6l-11.6 2.2M690.5 297.2l8.5.3M690.5 297.2l2.4 2M698.9 297.5l-2.7 1.7M692.9 299.2l1.2 11.6M696.2 299.2l-2.1 11.6M707.7 307.2l5.6 6.4M707.7 307.2l.3 3.1M713.3 313.5l-3.1-.8M708 310.3l-7.6 8.9M710.2 312.7l-9.8 6.5M680.7 311.9l4.9-7M680.7 311.9l3-1M685.5 305v3.2M683.7 310.9l10.5 5.2M685.5 308.2l8.7 7.9M698.7 330.5l-7.9-3M698.7 330.5l-1.7-2.7M690.9 327.6l3.1-.8M697 327.8l2.5-11.4M694 326.8l5.5-10.4M686.6 316.6l2.7 8.1M686.6 316.6l-1 3M689.3 324.5l-2.5-1.9M685.6 319.6l-10.4 5.2M686.8 322.6l-11.6 2.2M666.5 325.2l8.5.3M666.5 325.2l2.4 2M674.9 325.5l-2.7 1.7M668.9 327.2l1.2 11.6M672.2 327.2l-2.1 11.6M683.7 335.2l5.6 6.4M683.7 335.2l.3 3.1M689.3 341.5l-3.1-.8M686.2 340.7l-9.8 6.5M656.7 339.9l4.9-7M656.7 339.9l3-1M661.5 333v3.2M659.7 338.9l10.5 5.2M661.5 336.2l8.7 7.9M674.7 358.5l-7.9-3M674.7 358.5l-1.7-2.7M666.9 355.6l3.1-.8M673 355.8l2.5-11.4M670 354.8l5.5-10.4M662.6 344.6l2.7 8.1M662.6 344.6l-1 3M665.3 352.5l-2.5-1.9M661.6 347.6l-10.4 5.2M662.8 350.6l-11.6 2.2M705.5 338.2l8.5.3M705.5 338.2l2.4 2M713.9 338.5l-2.7 1.7M707.9 340.2l1.2 11.6M711.2 340.2l-2.1 11.6M722.7 348.2l5.6 6.4M722.7 348.2l.3 3.1M728.3 354.5l-3.1-.8M723 351.3l-7.6 8.9M725.2 353.7l-9.8 6.5M695.7 352.9l4.9-7M695.7 352.9l3-1M700.5 346v3.2M698.7 351.9l10.5 5.2M700.5 349.2l8.7 7.9M713.7 371.5l-7.9-3M713.7 371.5l-1.7-2.7M705.9 368.6l3.1-.8M712 368.8l2.5-11.4M709 367.8l5.5-10.4M701.6 357.6l2.7 8.1M701.6 357.6l-1 3M704.3 365.5l-2.5-1.9M700.6 360.6l-10.4 5.2M701.8 363.6l-11.6 2.2M607.5 432.2l8.5.3M607.5 432.2l2.4 2M615.9 432.5l-2.7 1.7M609.9 434.2l1.2 11.6M613.2 434.2l-2.1 11.6M624.7 442.2l5.6 6.4M624.7 442.2l.3 3.1M630.3 448.5l-3.1-.8M625 445.3l-7.6 8.9M627.2 447.7l-9.8 6.5M597.7 446.9l4.9-7M597.7 446.9l3-1M602.5 440v3.2M600.7 445.9l10.5 5.2M602.5 443.2l8.7 7.9M615.7 465.5l-7.9-3M615.7 465.5l-1.7-2.7M607.9 462.6l3.1-.8M614 462.8l2.5-11.4M611 461.8l5.5-10.4M603.6 451.6l2.7 8.1M603.6 451.6l-1 3M606.3 459.5l-2.5-1.9M602.6 454.6l-10.4 5.2M603.8 457.6l-11.6 2.2M675.5 371.2l8.5.3M675.5 371.2l2.4 2M683.9 371.5l-2.7 1.7M677.9 373.2l1.2 11.6M681.2 373.2l-2.1 11.6M692.7 381.2l5.6 6.4M692.7 381.2l.3 3.1M698.3 387.5l-3.1-.8M693 384.3l-7.6 8.9M695.2 386.7l-9.8 6.5M665.7 385.9l4.9-7M665.7 385.9l3-1M670.5 379v3.2M668.7 384.9l10.5 5.2M670.5 382.2l8.7 7.9M683.7 404.5l-7.9-3M683.7 404.5l-1.7-2.7M675.9 401.6l3.1-.8M682 401.8l2.5-11.4M679 400.8l5.5-10.4M671.6 390.6l2.7 8.1M671.6 390.6l-1 3M674.3 398.5l-2.5-1.9M670.6 393.6l-10.4 5.2M671.8 396.6l-11.6 2.2M647.5 390.2l8.5.3M647.5 390.2l2.4 2M655.9 390.5l-2.7 1.7M649.9 392.2l1.2 11.6M653.2 392.2l-2.1 11.6M664.7 400.2l5.6 6.4M664.7 400.2l.3 3.1M670.3 406.5l-3.1-.8M665 403.3l-7.6 8.9M667.2 405.7l-9.8 6.5M637.7 404.9l4.9-7M637.7 404.9l3-1M642.5 398v3.2M640.7 403.9l10.5 5.2M642.5 401.2l8.7 7.9M655.7 423.5l-7.9-3M655.7 423.5l-1.7-2.7M647.9 420.6l3.1-.8M654 420.8l2.5-11.4M651 419.8l5.5-10.4M643.6 409.6l2.7 8.1M643.6 409.6l-1 3M646.3 417.5l-2.5-1.9M642.6 412.6l-10.4 5.2M643.8 415.6l-11.6 2.2M725.5 375.2l8.5.3M725.5 375.2l2.4 2M733.9 375.5l-2.7 1.7M727.9 377.2l1.2 11.6M731.2 377.2l-2.1 11.6M742.7 385.2l5.6 6.4M742.7 385.2l.3 3.1M748.3 391.5l-3.1-.8M743 388.3l-7.6 8.9M745.2 390.7l-9.8 6.5M715.7 389.9l4.9-7M715.7 389.9l3-1M720.5 383v3.2M718.7 388.9l10.5 5.2M720.5 386.2l8.7 7.9M733.7 408.5l-7.9-3M733.7 408.5l-1.7-2.7M725.9 405.6l3.1-.8M732 405.8l2.5-11.4M729 404.8l5.5-10.4M721.6 394.6l2.7 8.1M721.6 394.6l-1 3M724.3 402.5l-2.5-1.9M720.6 397.6l-10.4 5.2M721.8 400.6l-11.6 2.2M636.5 445.2l8.5.3M636.5 445.2l2.4 2M644.9 445.5l-2.7 1.7M638.9 447.2l1.2 11.6M642.2 447.2l-2.1 11.6M653.7 455.2l5.6 6.4M653.7 455.2l.3 3.1M659.3 461.5l-3.1-.8M654 458.3l-7.6 8.9M656.2 460.7l-9.8 6.5M626.7 459.9l4.9-7M626.7 459.9l3-1M631.5 453v3.2M629.7 458.9l10.5 5.2M631.5 456.2l8.7 7.9M644.7 478.5l-7.9-3M644.7 478.5l-1.7-2.7M636.9 475.6l3.1-.8M643 475.8l2.5-11.4M640 474.8l5.5-10.4M632.6 464.6l2.7 8.1M632.6 464.6l-1 3M635.3 472.5l-2.5-1.9M631.6 467.6l-10.4 5.2M632.8 470.6l-11.6 2.2M698.5 397.2l8.5.3M698.5 397.2l2.4 2M706.9 397.5l-2.7 1.7M700.9 399.2l1.2 11.6M704.2 399.2l-2.1 11.6M715.7 407.2l5.6 6.4M715.7 407.2l.3 3.1M721.3 413.5l-3.1-.8M716 410.3l-7.6 8.9M718.2 412.7l-9.8 6.5M688.7 411.9l4.9-7M688.7 411.9l3-1M693.5 405v3.2M691.7 410.9l10.5 5.2M693.5 408.2l8.7 7.9M706.7 430.5l-7.9-3M706.7 430.5l-1.7-2.7M698.9 427.6l3.1-.8M705 427.8l2.5-11.4M702 426.8l5.5-10.4M694.6 416.6l2.7 8.1M694.6 416.6l-1 3M697.3 424.5l-2.5-1.9M693.6 419.6l-10.4 5.2M694.8 422.6l-11.6 2.2M688.5 433.2l8.5.3M688.5 433.2l2.4 2M696.9 433.5l-2.7 1.7M690.9 435.2l1.2 11.6M694.2 435.2l-2.1 11.6M705.7 443.2l5.6 6.4M705.7 443.2l.3 3.1M711.3 449.5l-3.1-.8M706 446.3l-7.6 8.9M708.2 448.7l-9.8 6.5M678.7 447.9l4.9-7M678.7 447.9l3-1M683.5 441v3.2M681.7 446.9l10.5 5.2M683.5 444.2l8.7 7.9M696.7 466.5l-7.9-3M696.7 466.5l-1.7-2.7M688.9 463.6l3.1-.8M695 463.8l2.5-11.4M692 462.8l5.5-10.4M684.6 452.6l2.7 8.1M684.6 452.6l-1 3M687.3 460.5l-2.5-1.9M683.6 455.6l-10.4 5.2M684.8 458.6l-11.6 2.2M628.6 429.6l2.7 8.1M628.6 429.6l-1 3M631.3 437.5l-2.5-1.9M627.6 432.6l-10.4 5.2M628.8 435.6l-11.6 2.2M474.6 348.6l2.7 8.1M474.6 348.6l-1 3M477.3 356.5l-2.5-1.9M473.6 351.6l-10.4 5.2M474.8 354.6l-11.6 2.2M533.6 405.6l2.7 8.1M533.6 405.6l-1 3M536.3 413.5l-2.5-1.9M532.6 408.6l-10.4 5.2M533.8 411.6l-11.6 2.2M813.6 426.6l2.7 8.1M813.6 426.6l-1 3M816.3 434.5l-2.5-1.9M812.6 429.6l-10.4 5.2M813.8 432.6l-11.6 2.2M584.6 309.6l2.7 8.1M584.6 309.6l-1 3M587.3 317.5l-2.5-1.9M583.6 312.6l-10.4 5.2M584.8 315.6l-11.6 2.2M607.6 466.6l2.7 8.1M607.6 466.6l-1 3M610.3 474.5l-2.5-1.9M606.6 469.6l-10.4 5.2M607.8 472.6l-11.6 2.2M682.6 483.6l2.7 8.1M682.6 483.6l-1 3M685.3 491.5l-2.5-1.9M681.6 486.6l-10.4 5.2M682.8 489.6l-11.6 2.2M704.6 285.6l2.7 8.1M704.6 285.6l-1 3M707.3 293.5l-2.5-1.9M703.6 288.6l-10.4 5.2M704.8 291.6l-11.6 2.2M564.6 487.6l2.7 8.1M564.6 487.6l-1 3M567.3 495.5l-2.5-1.9M563.6 490.6l-10.4 5.2M564.8 493.6l-11.6 2.2M464.5 383.2l8.5.3M464.5 383.2l2.4 2M472.9 383.5l-2.7 1.7M466.9 385.2l1.2 11.6M470.2 385.2l-2.1 11.6M783.5 290.2l8.5.3M783.5 290.2l2.4 2M791.9 290.5l-2.7 1.7M785.9 292.2l1.2 11.6M789.2 292.2l-2.1 11.6M635.5 172.2l8.5.3M635.5 172.2l2.4 2M643.9 172.5l-2.7 1.7M637.9 174.2l1.2 11.6M641.2 174.2l-2.1 11.6M686.5 499.2l8.5.3M686.5 499.2l2.4 2M694.9 499.5l-2.7 1.7M688.9 501.2l1.2 11.6M692.2 501.2l-2.1 11.6M792.4 299l7.2 4.5M792.4 299l1.1 2.9M799.5 303.4l-3.2.1M793.5 301.9l-4.6 10.7M796.3 303.5l-7.4 9.1M578.5 209l-2.2-8.2M578.5 209l1.2-2.9M576.3 200.9l2.4 2.1M579.7 206.1l10.7-4.5M578.7 203l11.7-1.4M453.5 372.2l8.5.3M453.5 372.2l2.4 2M461.9 372.5l-2.7 1.7M455.9 374.2l1.2 11.6M459.2 374.2l-2.1 11.6M558.5 500.2l8.5.3M558.5 500.2l2.4 2M566.9 500.5l-2.7 1.7M560.9 502.2l1.2 11.6M564.2 502.2l-2.1 11.6M575.7 510.2l5.6 6.4M575.7 510.2l.3 3.1M581.3 516.5l-3.1-.8M576 513.3l-7.6 8.9M578.2 515.7l-9.8 6.5M548.7 514.9l4.9-7M548.7 514.9l3-1M553.5 508v3.2M551.7 513.9l10.5 5.3M553.5 511.2l8.7 8M566.7 533.5l-7.9-3M566.7 533.5l-1.7-2.7M558.9 530.6l3.1-.8M565 530.8l2.5-11.4M562 529.8l5.5-10.4M554.6 519.6l2.7 8.1M554.6 519.6l-1 3M557.3 527.5l-2.5-1.9M553.6 522.6l-10.4 5.2M554.8 525.6l-11.6 2.2M586.5 517.2l8.5.3M586.5 517.2l2.4 2M594.9 517.5l-2.7 1.7M588.9 519.2l1.2 11.6M592.2 519.2l-2.1 11.6M603.7 527.2l5.6 6.4M603.7 527.2l.3 3.1M609.3 533.5l-3.1-.8M604 530.3l-7.6 8.9M606.2 532.7l-9.8 6.5M576.7 531.9l4.9-7M576.7 531.9l3-1M581.5 525v3.2M579.7 530.9l10.5 5.3M581.5 528.2l8.7 8M594.7 550.5l-7.9-3M594.7 550.5l-1.7-2.7M586.9 547.6l3.1-.8M593 547.8l2.5-11.4M590 546.8l5.5-10.4M582.6 536.6l2.7 8.1M582.6 536.6l-1 3M585.3 544.5l-2.5-1.9M581.6 539.6l-10.4 5.2M582.8 542.6l-11.6 2.2M632.5 517.2l8.5.3M632.5 517.2l2.4 2M640.9 517.5l-2.7 1.7M634.9 519.2l1.2 11.6M638.2 519.2l-2.1 11.6M649.7 527.2l5.6 6.4M649.7 527.2l.3 3.1M655.3 533.5l-3.1-.8M650 530.3l-7.6 8.9M652.2 532.7l-9.8 6.5M622.7 531.9l4.9-7M622.7 531.9l3-1M627.5 525v3.2M625.7 530.9l10.5 5.3M627.5 528.2l8.7 8M640.7 550.5l-7.9-3M640.7 550.5l-1.7-2.7M632.9 547.6l3.1-.8M639 547.8l2.5-11.4M636 546.8l5.5-10.4M628.6 536.6l2.7 8.1M628.6 536.6l-1 3M631.3 544.5l-2.5-1.9M627.6 539.6l-10.4 5.2M628.8 542.6l-11.6 2.2M552.5 201.2l8.5.3M552.5 201.2l2.4 2M560.9 201.5l-2.7 1.7M554.9 203.2l1.2 11.6M558.2 203.2l-2.1 11.6M569.7 211.2l5.6 6.4M569.7 211.2l.3 3.1M575.3 217.4l-3.1-.7M570 214.3l-7.6 8.9M572.2 216.7l-9.8 6.5M542.7 215.9l4.9-7M542.7 215.9l3-1M547.5 209v3.2M545.7 214.9l10.5 5.2M547.5 212.2l8.7 7.9M560.7 234.5l-7.9-3M560.7 234.5l-1.7-2.7M552.9 231.6l3.1-.8M559 231.8l2.5-11.4M556 230.8l5.5-10.4M548.6 220.6l2.7 8.1M548.6 220.6l-1 3M551.3 228.5l-2.5-1.9M547.6 223.6l-10.4 5.2M548.8 226.6l-11.6 2.2M590.5 163.2l8.5.3M590.5 163.2l2.4 2M598.9 163.5l-2.7 1.7M592.9 165.2l1.2 11.6M596.2 165.2l-2.1 11.6M607.7 173.2l5.6 6.4M607.7 173.2l.3 3.1M613.3 179.4l-3.1-.7M608 176.3l-7.6 8.9M610.2 178.7l-9.8 6.5M580.7 177.9l4.9-7M580.7 177.9l3-1M585.5 171v3.2M583.7 176.9l10.5 5.2M585.5 174.2l8.7 7.9M598.7 196.5l-7.9-3M598.7 196.5l-1.7-2.7M590.9 193.6l3.1-.8M597 193.8l2.5-11.4M594 192.8l5.5-10.4M586.6 182.6l2.7 8.1M586.6 182.6l-1 3M589.3 190.5l-2.5-1.9M585.6 185.6l-10.4 5.2M586.8 188.6l-11.6 2.2M618.5 141.2l8.5.3M618.5 141.2l2.4 2M626.9 141.5l-2.7 1.7M620.9 143.2l1.2 11.6M624.2 143.2l-2.1 11.6M635.7 151.2l5.6 6.4M635.7 151.2l.3 3.1M641.3 157.4l-3.1-.7M636 154.3l-7.6 8.9M638.2 156.7l-9.8 6.5M608.7 155.9l4.9-7M608.7 155.9l3-1M613.5 149v3.2M611.7 154.9l10.5 5.2M613.5 152.2l8.7 7.9M626.7 174.5l-7.9-3M626.7 174.5l-1.7-2.7M618.9 171.6l3.1-.8M625 171.8l2.5-11.4M622 170.8l5.5-10.4M614.6 160.6l2.7 8.1M614.6 160.6l-1 3M617.3 168.5l-2.5-1.9M613.6 163.6l-10.4 5.2M614.8 166.6l-11.6 2.2M725.5 483.2l8.5.3M725.5 483.2l2.4 2M733.9 483.5l-2.7 1.7M727.9 485.2l1.2 11.6M731.2 485.2l-2.1 11.6M742.7 493.2l5.6 6.4M742.7 493.2l.3 3.1M748.3 499.5l-3.1-.8M743 496.3l-7.6 8.9M745.2 498.7l-9.8 6.5M715.7 497.9l4.9-7M715.7 497.9l3-1M720.5 491v3.2M718.7 496.9l10.5 5.2M720.5 494.2l8.7 7.9M733.7 516.5l-7.9-3M733.7 516.5l-1.7-2.7M725.9 513.6l3.1-.8M732 513.8l2.5-11.4M729 512.8l5.5-10.4M721.6 502.6l2.7 8.1M721.6 502.6l-1 3M724.3 510.5l-2.5-1.9M720.6 505.6l-10.4 5.2M721.8 508.6l-11.6 2.2M754.5 496.2l8.5.3M754.5 496.2l2.4 2M762.9 496.5l-2.7 1.7M756.9 498.2l1.2 11.6M760.2 498.2l-2.1 11.6M771.7 506.2l5.6 6.4M771.7 506.2l.3 3.1M777.3 512.5l-3.1-.8M772 509.3l-7.6 8.9M774.2 511.7l-9.8 6.5M744.7 510.9l4.9-7M744.7 510.9l3-1M749.5 504v3.2M747.7 509.9l10.5 5.3M749.5 507.2l8.7 8M762.7 529.5l-7.9-3M762.7 529.5l-1.7-2.7M754.9 526.6l3.1-.8M761 526.8l2.5-11.4M758 525.8l5.5-10.4M750.6 515.6l2.7 8.1M750.6 515.6l-1 3M753.3 523.5l-2.5-1.9M749.6 518.6l-10.4 5.2M750.8 521.6l-11.6 2.2M788.5 506.2l8.5.3M788.5 506.2l2.4 2M796.9 506.5l-2.7 1.7M790.9 508.2l1.2 11.6M794.2 508.2l-2.1 11.6M805.7 516.2l5.6 6.4M805.7 516.2l.3 3.1M811.3 522.5l-3.1-.8M806 519.3l-7.6 8.9M808.2 521.7l-9.8 6.5M778.7 520.9l4.9-7M778.7 520.9l3-1M783.5 514v3.2M781.7 519.9l10.5 5.3M783.5 517.2l8.7 8M796.7 539.5l-7.9-3M796.7 539.5l-1.7-2.7M788.9 536.6l3.1-.8M795 536.8l2.5-11.4M792 535.8l5.5-10.4M784.6 525.6l2.7 8.1M784.6 525.6l-1 3M787.3 533.5l-2.5-1.9M783.6 528.6l-10.4 5.2M784.8 531.6l-11.6 2.2M916.5 430.2l8.5.3M916.5 430.2l2.4 2M924.9 430.5l-2.7 1.7M918.9 432.2l1.2 11.6M922.2 432.2l-2.1 11.6M933.7 440.2l5.6 6.4M933.7 440.2l.3 3.1M939.3 446.5l-3.1-.8M934 443.3l-7.6 8.9M936.2 445.7l-9.8 6.5M906.7 444.9l4.9-7M906.7 444.9l3-1M911.5 438v3.2M909.7 443.9l10.5 5.2M911.5 441.2l8.7 7.9M924.7 463.5l-7.9-3M924.7 463.5l-1.7-2.7M916.9 460.6l3.1-.8M923 460.8l2.5-11.4M920 459.8l5.5-10.4M912.6 449.6l2.7 8.1M912.6 449.6l-1 3M915.3 457.5l-2.5-1.9M911.6 452.6l-10.4 5.2M912.8 455.6l-11.6 2.2M925.5 459.2l8.5.3M925.5 459.2l2.4 2M933.9 459.5l-2.7 1.7M927.9 461.2l1.2 11.6M931.2 461.2l-2.1 11.6M942.7 469.2l5.6 6.4M942.7 469.2l.3 3.1M948.3 475.5l-3.1-.8M943 472.3l-7.6 8.9M945.2 474.7l-9.8 6.5M915.7 473.9l4.9-7M915.7 473.9l3-1M920.5 467v3.2M918.7 472.9l10.5 5.2M920.5 470.2l8.7 7.9M933.7 492.5l-7.9-3M933.7 492.5l-1.7-2.7M925.9 489.6l3.1-.8M932 489.8l2.5-11.4M929 488.8l5.5-10.4M921.6 478.6l2.7 8.1M921.6 478.6l-1 3M924.3 486.5l-2.5-1.9M920.6 481.6l-10.4 5.2M921.8 484.6l-11.6 2.2M902.5 480.2l8.5.3M902.5 480.2l2.4 2M910.9 480.5l-2.7 1.7M904.9 482.2l1.2 11.6M908.2 482.2l-2.1 11.6M919.7 490.2l5.6 6.4M919.7 490.2l.3 3.1M925.3 496.5l-3.1-.8M920 493.3l-7.6 8.9M922.2 495.7l-9.8 6.5M892.7 494.9l4.9-7M892.7 494.9l3-1M897.5 488v3.2M895.7 493.9l10.5 5.2M897.5 491.2l8.7 7.9M910.7 513.5l-7.9-3M910.7 513.5l-1.7-2.7M902.9 510.6l3.1-.8M909 510.8l2.5-11.4M906 509.8l5.5-10.4M898.6 499.6l2.7 8.1M898.6 499.6l-1 3M901.3 507.5l-2.5-1.9M897.6 502.6l-10.4 5.2M898.8 505.6l-11.6 2.2M822.5 513.2l8.5.3M822.5 513.2l2.4 2M830.9 513.5l-2.7 1.7M824.9 515.2l1.2 11.6M828.2 515.2l-2.1 11.6M839.7 523.2l5.6 6.4M839.7 523.2l.3 3.1M845.3 529.5l-3.1-.8M840 526.3l-7.6 8.9M842.2 528.7l-9.8 6.5M812.7 527.9l4.9-7M812.7 527.9l3-1M817.5 521v3.2M815.7 526.9l10.5 5.3M817.5 524.2l8.7 8M830.7 546.5l-7.9-3M830.7 546.5l-1.7-2.7M822.9 543.6l3.1-.8M829 543.8l2.5-11.4M826 542.8l5.5-10.4M818.6 532.6l2.7 8.1M818.6 532.6l-1 3M821.3 540.5l-2.5-1.9M817.6 535.6l-10.4 5.2M818.8 538.6l-11.6 2.2M869.5 502.2l8.5.3M869.5 502.2l2.4 2M877.9 502.5l-2.7 1.7M871.9 504.2l1.2 11.6M875.2 504.2l-2.1 11.6M886.7 512.2l5.6 6.4M886.7 512.2l.3 3.1M892.3 518.5l-3.1-.8M887 515.3l-7.6 8.9M889.2 517.7l-9.8 6.5M859.7 516.9l4.9-7M859.7 516.9l3-1M864.5 510v3.2M862.7 515.9l10.5 5.3M864.5 513.2l8.7 8M877.7 535.5l-7.9-3M877.7 535.5l-1.7-2.7M869.9 532.6l3.1-.8M876 532.8l2.5-11.4M873 531.8l5.5-10.4M865.6 521.6l2.7 8.1M865.6 521.6l-1 3M868.3 529.5l-2.5-1.9M864.6 524.6l-10.4 5.2M865.8 527.6l-11.6 2.2M942.5 407.2l8.5.3M942.5 407.2l2.4 2M950.9 407.5l-2.7 1.7M944.9 409.2l1.2 11.6M948.2 409.2l-2.1 11.6M959.7 417.2l5.6 6.4M959.7 417.2l.3 3.1M965.3 423.5l-3.1-.8M960 420.3l-7.6 8.9M962.2 422.7l-9.8 6.5M932.7 421.9l4.9-7M932.7 421.9l3-1M937.5 415v3.2M935.7 420.9l10.5 5.2M937.5 418.2l8.7 7.9M950.7 440.5l-7.9-3M950.7 440.5l-1.7-2.7M942.9 437.6l3.1-.8M949 437.8l2.5-11.4M946 436.8l5.5-10.4M938.6 426.6l2.7 8.1M938.6 426.6l-1 3M941.3 434.5l-2.5-1.9M937.6 429.6l-10.4 5.2M938.8 432.6l-11.6 2.2M952.5 376.2l8.5.3M952.5 376.2l2.4 2M960.9 376.5l-2.7 1.7M954.9 378.2l1.2 11.6M958.2 378.2l-2.1 11.6M969.7 386.2l5.6 6.4M969.7 386.2l.3 3.1M975.3 392.5l-3.1-.8M970 389.3l-7.6 8.9M972.2 391.7l-9.8 6.5M942.7 390.9l4.9-7M942.7 390.9l3-1M947.5 384v3.2M945.7 389.9l10.5 5.2M947.5 387.2l8.7 7.9M960.7 409.5l-7.9-3M960.7 409.5l-1.7-2.7M952.9 406.6l3.1-.8M959 406.8l2.5-11.4M956 405.8l5.5-10.4M948.6 395.6l2.7 8.1M948.6 395.6l-1 3M951.3 403.5l-2.5-1.9M947.6 398.6l-10.4 5.2M948.8 401.6l-11.6 2.2M941.5 347.2l8.5.3M941.5 347.2l2.4 2M949.9 347.5l-2.7 1.7M943.9 349.2l1.2 11.6M947.2 349.2l-2.1 11.6M958.7 357.2l5.6 6.4M958.7 357.2l.3 3.1M964.3 363.5l-3.1-.8M959 360.3l-7.6 8.9M961.2 362.7l-9.8 6.5M931.7 361.9l4.9-7M931.7 361.9l3-1M936.5 355v3.2M934.7 360.9l10.5 5.2M936.5 358.2l8.7 7.9M949.7 380.5l-7.9-3M949.7 380.5l-1.7-2.7M941.9 377.6l3.1-.8M948 377.8l2.5-11.4M945 376.8l5.5-10.4M937.6 366.6l2.7 8.1M937.6 366.6l-1 3M940.3 374.5l-2.5-1.9M936.6 369.6l-10.4 5.2M937.8 372.6l-11.6 2.2M926.5 318.2l8.5.3M926.5 318.2l2.4 2M934.9 318.5l-2.7 1.7M928.9 320.2l1.2 11.6M932.2 320.2l-2.1 11.6M943.7 328.2l5.6 6.4M943.7 328.2l.3 3.1M949.3 334.5l-3.1-.8M944 331.3l-7.6 8.9M946.2 333.7l-9.8 6.5M916.7 332.9l4.9-7M916.7 332.9l3-1M921.5 326v3.2M919.7 331.9l10.5 5.2M921.5 329.2l8.7 7.9M934.7 351.5l-7.9-3M934.7 351.5l-1.7-2.7M926.9 348.6l3.1-.8M933 348.8l2.5-11.4M930 347.8l5.5-10.4M922.6 337.6l2.7 8.1M922.6 337.6l-1 3M925.3 345.5l-2.5-1.9M921.6 340.6l-10.4 5.2M922.8 343.6l-11.6 2.2M901.5 296.2l8.5.3M901.5 296.2l2.4 2M909.9 296.5l-2.7 1.7M903.9 298.2l1.2 11.6M907.2 298.2l-2.1 11.6M918.7 306.2l5.6 6.4M918.7 306.2l.3 3.1M924.3 312.5l-3.1-.8M919 309.3l-7.6 8.9M921.2 311.7l-9.8 6.5M891.7 310.9l4.9-7M891.7 310.9l3-1M896.5 304v3.2M894.7 309.9l10.5 5.2M896.5 307.2l8.7 7.9M909.7 329.5l-7.9-3M909.7 329.5l-1.7-2.7M901.9 326.6l3.1-.8M908 326.8l2.5-11.4M905 325.8l5.5-10.4M897.6 315.6l2.7 8.1M897.6 315.6l-1 3M900.3 323.5l-2.5-1.9M896.6 318.6l-10.4 5.2M897.8 321.6l-11.6 2.2M869.5 289.2l8.5.3M869.5 289.2l2.4 2M877.9 289.5l-2.7 1.7M871.9 291.2l1.2 11.6M875.2 291.2l-2.1 11.6M886.7 299.2l5.6 6.4M886.7 299.2l.3 3.1M892.3 305.5l-3.1-.8M887 302.3l-7.6 8.9M889.2 304.7l-9.8 6.5M859.7 303.9l4.9-7M859.7 303.9l3-1M864.5 297v3.2M862.7 302.9l10.5 5.2M864.5 300.2l8.7 7.9M877.7 322.5l-7.9-3M877.7 322.5l-1.7-2.7M869.9 319.6l3.1-.8M876 319.8l2.5-11.4M873 318.8l5.5-10.4M865.6 308.6l2.7 8.1M865.6 308.6l-1 3M868.3 316.5l-2.5-1.9M864.6 311.6l-10.4 5.2M865.8 314.6l-11.6 2.2M871.5 253.2l8.5.3M871.5 253.2l2.4 2M879.9 253.5l-2.7 1.7M873.9 255.2l1.2 11.6M877.2 255.2l-2.1 11.6M888.7 263.2l5.6 6.4M888.7 263.2l.3 3.1M894.3 269.5l-3.1-.8M889 266.3l-7.6 8.9M891.2 268.7l-9.8 6.5M861.7 267.9l4.9-7M861.7 267.9l3-1M866.5 261v3.2M864.7 266.9l10.5 5.2M866.5 264.2l8.7 7.9M879.7 286.5l-7.9-3M879.7 286.5l-1.7-2.7M871.9 283.6l3.1-.8M878 283.8l2.5-11.4M875 282.8l5.5-10.4M867.6 272.6l2.7 8.1M867.6 272.6l-1 3M870.3 280.5l-2.5-1.9M866.6 275.6l-10.4 5.2M867.8 278.6l-11.6 2.2M880.5 223.2l8.5.3M880.5 223.2l2.4 2M888.9 223.5l-2.7 1.7M882.9 225.2l1.2 11.6M886.2 225.2l-2.1 11.6M897.7 233.2l5.6 6.4M897.7 233.2l.3 3.1M903.3 239.4l-3.1-.7M898 236.3l-7.6 8.9M900.2 238.7l-9.8 6.5M870.7 237.9l4.9-7M870.7 237.9l3-1M875.5 231v3.2M873.7 236.9l10.5 5.2M875.5 234.2l8.7 7.9M888.7 256.5l-7.9-3M888.7 256.5l-1.7-2.7M880.9 253.6l3.1-.8M887 253.8l2.5-11.4M884 252.8l5.5-10.4M876.6 242.6l2.7 8.1M876.6 242.6l-1 3M879.3 250.5l-2.5-1.9M875.6 245.6l-10.4 5.2M876.8 248.6l-11.6 2.2M869.5 195.2l8.5.3M869.5 195.2l2.4 2M877.9 195.5l-2.7 1.7M871.9 197.2l1.2 11.6M875.2 197.2l-2.1 11.6M886.7 205.2l5.6 6.4M886.7 205.2l.3 3.1M892.3 211.4l-3.1-.7M887 208.3l-7.6 8.9M889.2 210.7l-9.8 6.5M859.7 209.9l4.9-7M859.7 209.9l3-1M864.5 203v3.2M862.7 208.9l10.5 5.2M864.5 206.2l8.7 7.9M877.7 228.5l-7.9-3M877.7 228.5l-1.7-2.7M869.9 225.6l3.1-.8M876 225.8l2.5-11.4M873 224.8l5.5-10.4M865.6 214.6l2.7 8.1M865.6 214.6l-1 3M868.3 222.5l-2.5-1.9M864.6 217.6l-10.4 5.2M865.8 220.6l-11.6 2.2M851.5 170.2l8.5.3M851.5 170.2l2.4 2M859.9 170.5l-2.7 1.7M853.9 172.2l1.2 11.6M857.2 172.2l-2.1 11.6M868.7 180.2l5.6 6.4M868.7 180.2l.3 3.1M874.3 186.4l-3.1-.7M869 183.3l-7.6 8.9M871.2 185.7l-9.8 6.5M841.7 184.9l4.9-7M841.7 184.9l3-1M846.5 178v3.2M844.7 183.9l10.5 5.2M846.5 181.2l8.7 7.9M859.7 203.5l-7.9-3M859.7 203.5l-1.7-2.7M851.9 200.6l3.1-.8M858 200.8l2.5-11.4M855 199.8l5.5-10.4M847.6 189.6l2.7 8.1M847.6 189.6l-1 3M850.3 197.5l-2.5-1.9M846.6 192.6l-10.4 5.2M847.8 195.6l-11.6 2.2M817.5 168.2l8.5.3M817.5 168.2l2.4 2M825.9 168.5l-2.7 1.7M819.9 170.2l1.2 11.6M823.2 170.2l-2.1 11.6M834.7 178.2l5.6 6.4M834.7 178.2l.3 3.1M840.3 184.4l-3.1-.7M835 181.3l-7.6 8.9M837.2 183.7l-9.8 6.5M807.7 182.9l4.9-7M807.7 182.9l3-1M812.5 176v3.2M810.7 181.9l10.5 5.2M812.5 179.2l8.7 7.9M825.7 201.5l-7.9-3M825.7 201.5l-1.7-2.7M817.9 198.6l3.1-.8M824 198.8l2.5-11.4M821 197.8l5.5-10.4M813.6 187.6l2.7 8.1M813.6 187.6l-1 3M816.3 195.5l-2.5-1.9M812.6 190.6l-10.4 5.2M813.8 193.6l-11.6 2.2M785.5 175.2l8.5.3M785.5 175.2l2.4 2M793.9 175.5l-2.7 1.7M787.9 177.2l1.2 11.6M791.2 177.2l-2.1 11.6M802.7 185.2l5.6 6.4M802.7 185.2l.3 3.1M808.3 191.4l-3.1-.7M803 188.3l-7.6 8.9M805.2 190.7l-9.8 6.5M775.7 189.9l4.9-7M775.7 189.9l3-1M780.5 183v3.2M778.7 188.9l10.5 5.2M780.5 186.2l8.7 7.9M793.7 208.5l-7.9-3M793.7 208.5l-1.7-2.7M785.9 205.6l3.1-.8M792 205.8l2.5-11.4M789 204.8l5.5-10.4M781.6 194.6l2.7 8.1M781.6 194.6l-1 3M784.3 202.5l-2.5-1.9M780.6 197.6l-10.4 5.2M781.8 200.6l-11.6 2.2M760.5 194.2l8.5.3M760.5 194.2l2.4 2M768.9 194.5l-2.7 1.7M762.9 196.2l1.2 11.6M766.2 196.2l-2.1 11.6M777.7 204.2l5.6 6.4M777.7 204.2l.3 3.1M783.3 210.4l-3.1-.7M778 207.3l-7.6 8.9M780.2 209.7l-9.8 6.5M750.7 208.9l4.9-7M750.7 208.9l3-1M755.5 202v3.2M753.7 207.9l10.5 5.2M755.5 205.2l8.7 7.9M768.7 227.5l-7.9-3M768.7 227.5l-1.7-2.7M760.9 224.6l3.1-.8M767 224.8l2.5-11.4M764 223.8l5.5-10.4M756.6 213.6l2.7 8.1M756.6 213.6l-1 3M759.3 221.5l-2.5-1.9M755.6 216.6l-10.4 5.2M756.8 219.6l-11.6 2.2M743.5 167.2l8.5.3M743.5 167.2l2.4 2M751.9 167.5l-2.7 1.7M745.9 169.2l1.2 11.6M749.2 169.2l-2.1 11.6M760.7 177.2l5.6 6.4M760.7 177.2l.3 3.1M766.3 183.4l-3.1-.7M761 180.3l-7.6 8.9M763.2 182.7l-9.8 6.5M733.7 181.9l4.9-7M733.7 181.9l3-1M738.5 175v3.2M736.7 180.9l10.5 5.2M738.5 178.2l8.7 7.9M751.7 200.5l-7.9-3M751.7 200.5l-1.7-2.7M743.9 197.6l3.1-.8M750 197.8l2.5-11.4M747 196.8l5.5-10.4M739.6 186.6l2.7 8.1M739.6 186.6l-1 3M742.3 194.5l-2.5-1.9M738.6 189.6l-10.4 5.2M739.8 192.6l-11.6 2.2M725.5 143.2l8.5.3M725.5 143.2l2.4 2M733.9 143.5l-2.7 1.7M727.9 145.2l1.2 11.6M731.2 145.2l-2.1 11.6M742.7 153.2l5.6 6.4M742.7 153.2l.3 3.1M748.3 159.4l-3.1-.7M743 156.3l-7.6 8.9M745.2 158.7l-9.8 6.5M715.7 157.9l4.9-7M715.7 157.9l3-1M720.5 151v3.2M718.7 156.9l10.5 5.2M720.5 154.2l8.7 7.9M733.7 176.5l-7.9-3M733.7 176.5l-1.7-2.7M725.9 173.6l3.1-.8M732 173.8l2.5-11.4M729 172.8l5.5-10.4M721.6 162.6l2.7 8.1M721.6 162.6l-1 3M724.3 170.5l-2.5-1.9M720.6 165.6l-10.4 5.2M721.8 168.6l-11.6 2.2M568.5 149.2l8.5.3M568.5 149.2l2.4 2M576.9 149.5l-2.7 1.7M570.9 151.2l1.2 11.6M574.2 151.2l-2.1 11.6M585.7 159.2l5.6 6.4M585.7 159.2l.3 3.1M591.3 165.4l-3.1-.7M586 162.3l-7.6 8.9M588.2 164.7l-9.8 6.5M558.7 163.9l4.9-7M558.7 163.9l3-1M563.5 157v3.2M561.7 162.9l10.5 5.2M563.5 160.2l8.7 7.9M576.7 182.5l-7.9-3M576.7 182.5l-1.7-2.7M568.9 179.6l3.1-.8M575 179.8l2.5-11.4M572 178.8l5.5-10.4M564.6 168.6l2.7 8.1M564.6 168.6l-1 3M567.3 176.5l-2.5-1.9M563.6 171.6l-10.4 5.2M564.8 174.6l-11.6 2.2M696.5 129.2l8.5.3M696.5 129.2l2.4 2M704.9 129.5l-2.7 1.7M698.9 131.2l1.2 11.6M702.2 131.2l-2.1 11.6M713.7 139.2l5.6 6.4M713.7 139.2l.3 3.1M719.3 145.4l-3.1-.7M714 142.3l-7.6 8.9M716.2 144.7l-9.8 6.5M686.7 143.9l4.9-7M686.7 143.9l3-1M691.5 137v3.2M689.7 142.9l10.5 5.2M691.5 140.2l8.7 7.9M704.7 162.5l-7.9-3M704.7 162.5l-1.7-2.7M696.9 159.6l3.1-.8M703 159.8l2.5-11.4M700 158.8l5.5-10.4M692.6 148.6l2.7 8.1M692.6 148.6l-1 3M695.3 156.5l-2.5-1.9M691.6 151.6l-10.4 5.2M692.8 154.6l-11.6 2.2M665.5 116.2l8.5.3M665.5 116.2l2.4 2M673.9 116.5l-2.7 1.7M667.9 118.2l1.2 11.6M671.2 118.2l-2.1 11.6M682.7 126.2l5.6 6.4M682.7 126.2l.3 3.1M688.3 132.4l-3.1-.7M683 129.3l-7.6 8.9M685.2 131.7l-9.8 6.5M655.7 130.9l4.9-7M655.7 130.9l3-1M660.5 124v3.2M658.7 129.9l10.5 5.2M660.5 127.2l8.7 7.9M673.7 149.5l-7.9-3M673.7 149.5l-1.7-2.7M665.9 146.6l3.1-.8M672 146.8l2.5-11.4M669 145.8l5.5-10.4M661.6 135.6l2.7 8.1M661.6 135.6l-1 3M664.3 143.5l-2.5-1.9M660.6 138.6l-10.4 5.2M661.8 141.6l-11.6 2.2"/></g><path class="st1" d="M630.5 108.2l8.5.3M630.5 108.2l2.4 2M638.9 108.5l-2.7 1.7M632.9 110.2l1.2 11.6M636.2 110.2l-2.1 11.6M647.7 118.2l5.6 6.4M647.7 118.2l.3 3.1M653.3 124.4l-3.1-.7M648 121.3l-7.6 8.9M650.2 123.7l-9.8 6.5M620.7 122.9l4.9-7M620.7 122.9l3-1M625.5 116v3.2M623.7 121.9l10.5 5.2M625.5 119.2l8.7 7.9M638.7 141.5l-7.9-3M638.7 141.5l-1.7-2.7M630.9 138.6l3.1-.8M637 138.8l2.5-11.4M634 137.8l5.5-10.4M626.6 127.6l2.7 8.1M626.6 127.6l-1 3M629.3 135.5l-2.5-1.9M625.6 130.6l-10.4 5.2M626.8 133.6l-11.6 2.2M590.5 120.2l8.5.3M590.5 120.2l2.4 2M598.9 120.5l-2.7 1.7M592.9 122.2l1.2 11.6M596.2 122.2l-2.1 11.6M607.7 130.2l5.6 6.4M607.7 130.2l.3 3.1M613.3 136.4l-3.1-.7M608 133.3l-7.6 8.9M610.2 135.7l-9.8 6.5M580.7 134.9l4.9-7M580.7 134.9l3-1M585.5 128v3.2M583.7 133.9l10.5 5.2M585.5 131.2l8.7 7.9M598.7 153.5l-7.9-3M598.7 153.5l-1.7-2.7M590.9 150.6l3.1-.8M597 150.8l2.5-11.4M594 149.8l5.5-10.4M586.6 139.6l2.7 8.1M586.6 139.6l-1 3M589.3 147.5l-2.5-1.9M585.6 142.6l-10.4 5.2M586.8 145.6l-11.6 2.2M897.5 340.2l8.5.3M897.5 340.2l2.4 2M905.9 340.5l-2.7 1.7M899.9 342.2l1.2 11.6M903.2 342.2l-2.1 11.6M914.7 350.2l5.6 6.4M914.7 350.2l.3 3.1M920.3 356.5l-3.1-.8M915 353.3l-7.6 8.9M917.2 355.7l-9.8 6.5M887.7 354.9l4.9-7M887.7 354.9l3-1M892.5 348v3.2M890.7 353.9l10.5 5.2M892.5 351.2l8.7 7.9M905.7 373.5l-7.9-3M905.7 373.5l-1.7-2.7M897.9 370.6l3.1-.8M904 370.8l2.5-11.4M901 369.8l5.5-10.4M893.6 359.6l2.7 8.1M893.6 359.6l-1 3M896.3 367.5l-2.5-1.9M892.6 362.6l-10.4 5.2M893.8 365.6l-11.6 2.2M806.5 252.2l8.5.3M806.5 252.2l2.4 2M814.9 252.5l-2.7 1.7M808.9 254.2l1.2 11.6M812.2 254.2l-2.1 11.6M823.7 262.2l5.6 6.4M823.7 262.2l.3 3.1M829.3 268.5l-3.1-.8M824 265.3l-7.6 8.9M826.2 267.7l-9.8 6.5M796.7 266.9l4.9-7M796.7 266.9l3-1M801.5 260v3.2M799.7 265.9l10.5 5.2M801.5 263.2l8.7 7.9M814.7 285.5l-7.9-3M814.7 285.5l-1.7-2.7M806.9 282.6l3.1-.8M813 282.8l2.5-11.4M810 281.8l5.5-10.4M802.6 271.6l2.7 8.1M802.6 271.6l-1 3M805.3 279.5l-2.5-1.9M801.6 274.6l-10.4 5.2M802.8 277.6l-11.6 2.2M768.5 462.2l8.5.3M768.5 462.2l2.4 2M776.9 462.5l-2.7 1.7M770.9 464.2l1.2 11.6M774.2 464.2l-2.1 11.6M785.7 472.2l5.6 6.4M785.7 472.2l.3 3.1M791.3 478.5l-3.1-.8M786 475.3l-7.6 8.9M788.2 477.7l-9.8 6.5M758.7 476.9l4.9-7M758.7 476.9l3-1M763.5 470v3.2M761.7 475.9l10.5 5.2M763.5 473.2l8.7 7.9M776.7 495.5l-7.9-3M776.7 495.5l-1.7-2.7M768.9 492.6l3.1-.8M775 492.8l2.5-11.4M772 491.8l5.5-10.4M764.6 481.6l2.7 8.1M764.6 481.6l-1 3M767.3 489.5l-2.5-1.9M763.6 484.6l-10.4 5.2M764.8 487.6l-11.6 2.2M864.5 322.2l8.5.3M864.5 322.2l2.4 2M872.9 322.5l-2.7 1.7M866.9 324.2l1.2 11.6M870.2 324.2l-2.1 11.6M881.7 332.2l5.6 6.4M881.7 332.2l.3 3.1M887.3 338.5l-3.1-.8M882 335.3l-7.6 8.9M884.2 337.7l-9.8 6.5M854.7 336.9l4.9-7M854.7 336.9l3-1M859.5 330v3.2M857.7 335.9l10.5 5.2M859.5 333.2l8.7 7.9M872.7 355.5l-7.9-3M872.7 355.5l-1.7-2.7M864.9 352.6l3.1-.8M871 352.8l2.5-11.4M868 351.8l5.5-10.4M860.6 341.6l2.7 8.1M860.6 341.6l-1 3M863.3 349.5l-2.5-1.9M859.6 344.6l-10.4 5.2M860.8 347.6l-11.6 2.2M912.5 371.2l8.5.3M912.5 371.2l2.4 2M920.9 371.5l-2.7 1.7M914.9 373.2l1.2 11.6M918.2 373.2l-2.1 11.6M929.7 381.2l5.6 6.4M929.7 381.2l.3 3.1M935.3 387.5l-3.1-.8M930 384.3l-7.6 8.9M932.2 386.7l-9.8 6.5M902.7 385.9l4.9-7M902.7 385.9l3-1M907.5 379v3.2M905.7 384.9l10.5 5.2M907.5 382.2l8.7 7.9M920.7 404.5l-7.9-3M920.7 404.5l-1.7-2.7M912.9 401.6l3.1-.8M919 401.8l2.5-11.4M916 400.8l5.5-10.4M908.6 390.6l2.7 8.1M908.6 390.6l-1 3M911.3 398.5l-2.5-1.9M907.6 393.6l-10.4 5.2M908.8 396.6l-11.6 2.2M804.5 459.2l8.5.3M804.5 459.2l2.4 2M812.9 459.5l-2.7 1.7M806.9 461.2l1.2 11.6M810.2 461.2l-2.1 11.6M821.7 469.2l5.6 6.4M821.7 469.2l.3 3.1M827.3 475.5l-3.1-.8M822 472.3l-7.6 8.9M824.2 474.7l-9.8 6.5M794.7 473.9l4.9-7M794.7 473.9l3-1M799.5 467v3.2M797.7 472.9l10.5 5.2M799.5 470.2l8.7 7.9M812.7 492.5l-7.9-3M812.7 492.5l-1.7-2.7M804.9 489.6l3.1-.8M811 489.8l2.5-11.4M808 488.8l5.5-10.4M800.6 478.6l2.7 8.1M800.6 478.6l-1 3M803.3 486.5l-2.5-1.9M799.6 481.6l-10.4 5.2M800.8 484.6l-11.6 2.2M886.5 407.2l8.5.3M886.5 407.2l2.4 2M894.9 407.5l-2.7 1.7M888.9 409.2l1.2 11.6M892.2 409.2l-2.1 11.6M903.7 417.2l5.6 6.4M903.7 417.2l.3 3.1M909.3 423.5l-3.1-.8M904 420.3l-7.6 8.9M906.2 422.7l-9.8 6.5M876.7 421.9l4.9-7M876.7 421.9l3-1M881.5 415v3.2M879.7 420.9l10.5 5.2M881.5 418.2l8.7 7.9M894.7 440.5l-7.9-3M894.7 440.5l-1.7-2.7M886.9 437.6l3.1-.8M893 437.8l2.5-11.4M890 436.8l5.5-10.4M882.6 426.6l2.7 8.1M882.6 426.6l-1 3M885.3 434.5l-2.5-1.9M881.6 429.6l-10.4 5.2M882.8 432.6l-11.6 2.2M873.5 450.2l8.5.3M873.5 450.2l2.4 2M881.9 450.5l-2.7 1.7M875.9 452.2l1.2 11.6M879.2 452.2l-2.1 11.6M890.7 460.2l5.6 6.4M890.7 460.2l.3 3.1M896.3 466.5l-3.1-.8M891 463.3l-7.6 8.9M893.2 465.7l-9.8 6.5M863.7 464.9l4.9-7M863.7 464.9l3-1M868.5 458v3.2M866.7 463.9l10.5 5.2M868.5 461.2l8.7 7.9M881.7 483.5l-7.9-3M881.7 483.5l-1.7-2.7M873.9 480.6l3.1-.8M880 480.8l2.5-11.4M877 479.8l5.5-10.4M869.6 469.6l2.7 8.1M869.6 469.6l-1 3M872.3 477.5l-2.5-1.9M868.6 472.6l-10.4 5.2M869.8 475.6l-11.6 2.2M814.5 322.2l8.5.3M814.5 322.2l2.4 2M822.9 322.5l-2.7 1.7M816.9 324.2l1.2 11.6M820.2 324.2l-2.1 11.6M831.7 332.2l5.6 6.4M831.7 332.2l.3 3.1M837.3 338.5l-3.1-.8M832 335.3l-7.6 8.9M834.2 337.7l-9.8 6.5M804.7 336.9l4.9-7M804.7 336.9l3-1M809.5 330v3.2M807.7 335.9l10.5 5.2M809.5 333.2l8.7 7.9M822.7 355.5l-7.9-3M822.7 355.5l-1.7-2.7M814.9 352.6l3.1-.8M821 352.8l2.5-11.4M818 351.8l5.5-10.4M810.6 341.6l2.7 8.1M810.6 341.6l-1 3M813.3 349.5l-2.5-1.9M809.6 344.6l-10.4 5.2M810.8 347.6l-11.6 2.2M867.5 366.2l8.5.3M867.5 366.2l2.4 2M875.9 366.5l-2.7 1.7M869.9 368.2l1.2 11.6M873.2 368.2l-2.1 11.6M884.7 376.2l5.6 6.4M884.7 376.2l.3 3.1M890.3 382.5l-3.1-.8M885 379.3l-7.6 8.9M887.2 381.7l-9.8 6.5M857.7 380.9l4.9-7M857.7 380.9l3-1M862.5 374v3.2M860.7 379.9l10.5 5.2M862.5 377.2l8.7 7.9M875.7 399.5l-7.9-3M875.7 399.5l-1.7-2.7M867.9 396.6l3.1-.8M874 396.8l2.5-11.4M871 395.8l5.5-10.4M863.6 385.6l2.7 8.1M863.6 385.6l-1 3M866.3 393.5l-2.5-1.9M862.6 388.6l-10.4 5.2M863.8 391.6l-11.6 2.2M826.5 358.2l8.5.3M826.5 358.2l2.4 2M834.9 358.5l-2.7 1.7M828.9 360.2l1.2 11.6M832.2 360.2l-2.1 11.6M843.7 368.2l5.6 6.4M843.7 368.2l.3 3.1M849.3 374.5l-3.1-.8M844 371.3l-7.6 8.9M846.2 373.7l-9.8 6.5M816.7 372.9l4.9-7M816.7 372.9l3-1M821.5 366v3.2M819.7 371.9l10.5 5.2M821.5 369.2l8.7 7.9M834.7 391.5l-7.9-3M834.7 391.5l-1.7-2.7M826.9 388.6l3.1-.8M833 388.8l2.5-11.4M830 387.8l5.5-10.4M822.6 377.6l2.7 8.1M822.6 377.6l-1 3M825.3 385.5l-2.5-1.9M821.6 380.6l-10.4 5.2M822.8 383.6l-11.6 2.2M842.5 401.2l8.5.3M842.5 401.2l2.4 2M850.9 401.5l-2.7 1.7M844.9 403.2l1.2 11.6M848.2 403.2l-2.1 11.6M859.7 411.2l5.6 6.4M859.7 411.2l.3 3.1M865.3 417.5l-3.1-.8M860 414.3l-7.6 8.9M862.2 416.7l-9.8 6.5M832.7 415.9l4.9-7M832.7 415.9l3-1M837.5 409v3.2M835.7 414.9l10.5 5.2M837.5 412.2l8.7 7.9M850.7 434.5l-7.9-3M850.7 434.5l-1.7-2.7M842.9 431.6l3.1-.8M849 431.8l2.5-11.4M846 430.8l5.5-10.4M838.6 420.6l2.7 8.1M838.6 420.6l-1 3M841.3 428.5l-2.5-1.9M837.6 423.6l-10.4 5.2M838.8 426.6l-11.6 2.2M837.5 439.2l8.5.3M837.5 439.2l2.4 2M845.9 439.5l-2.7 1.7M839.9 441.2l1.2 11.6M843.2 441.2l-2.1 11.6M854.7 449.2l5.6 6.4M854.7 449.2l.3 3.1M860.3 455.5l-3.1-.8M855 452.3l-7.6 8.9M857.2 454.7l-9.8 6.5M827.7 453.9l4.9-7M827.7 453.9l3-1M832.5 447v3.2M830.7 452.9l10.5 5.2M832.5 450.2l8.7 7.9M845.7 472.5l-7.9-3M845.7 472.5l-1.7-2.7M837.9 469.6l3.1-.8M844 469.8l2.5-11.4M841 468.8l5.5-10.4M833.6 458.6l2.7 8.1M833.6 458.6l-1 3M836.3 466.5l-2.5-1.9M832.6 461.6l-10.4 5.2M833.8 464.6l-11.6 2.2M838.5 481.2l8.5.3M838.5 481.2l2.4 2M846.9 481.5l-2.7 1.7M840.9 483.2l1.2 11.6M844.2 483.2l-2.1 11.6M855.7 491.2l5.6 6.4M855.7 491.2l.3 3.1M861.3 497.5l-3.1-.8M856 494.3l-7.6 8.9M858.2 496.7l-9.8 6.5M828.7 495.9l4.9-7M828.7 495.9l3-1M833.5 489v3.2M831.7 494.9l10.5 5.2M833.5 492.2l8.7 7.9M846.7 514.5l-7.9-3M846.7 514.5l-1.7-2.7M838.9 511.6l3.1-.8M845 511.8l2.5-11.4M842 510.8l5.5-10.4M834.6 500.6l2.7 8.1M834.6 500.6l-1 3M837.3 508.5l-2.5-1.9M833.6 503.6l-10.4 5.2M834.8 506.6l-11.6 2.2M780.5 221.2l8.5.3M780.5 221.2l2.4 2M788.9 221.5l-2.7 1.7M782.9 223.2l1.2 11.6M786.2 223.2l-2.1 11.6M797.7 231.2l5.6 6.4M797.7 231.2l.3 3.1M803.3 237.4l-3.1-.7M798 234.3l-7.6 8.9M800.2 236.7l-9.8 6.5M770.7 235.9l4.9-7M770.7 235.9l3-1M775.5 229v3.2M773.7 234.9l10.5 5.2M775.5 232.2l8.7 7.9M788.7 254.5l-7.9-3M788.7 254.5l-1.7-2.7M780.9 251.6l3.1-.8M787 251.8l2.5-11.4M784 250.8l5.5-10.4M776.6 240.6l2.7 8.1M776.6 240.6l-1 3M779.3 248.5l-2.5-1.9M775.6 243.6l-10.4 5.2M776.8 246.6l-11.6 2.2M828.5 209.2l8.5.3M828.5 209.2l2.4 2M836.9 209.5l-2.7 1.7M830.9 211.2l1.2 11.6M834.2 211.2l-2.1 11.6M845.7 219.2l5.6 6.4M845.7 219.2l.3 3.1M851.3 225.4l-3.1-.7M846 222.3l-7.6 8.9M848.2 224.7l-9.8 6.5M818.7 223.9l4.9-7M818.7 223.9l3-1M823.5 217v3.2M821.7 222.9l10.5 5.2M823.5 220.2l8.7 7.9M836.7 242.5l-7.9-3M836.7 242.5l-1.7-2.7M828.9 239.6l3.1-.8M835 239.8l2.5-11.4M832 238.8l5.5-10.4M824.6 228.6l2.7 8.1M824.6 228.6l-1 3M827.3 236.5l-2.5-1.9M823.6 231.6l-10.4 5.2M824.8 234.6l-11.6 2.2M825.5 280.2l8.5.3M825.5 280.2l2.4 2M833.9 280.5l-2.7 1.7M827.9 282.2l1.2 11.6M831.2 282.2l-2.1 11.6M842.7 290.2l5.6 6.4M842.7 290.2l.3 3.1M848.3 296.5l-3.1-.8M843 293.3l-7.6 8.9M845.2 295.7l-9.8 6.5M815.7 294.9l4.9-7M815.7 294.9l3-1M820.5 288v3.2M818.7 293.9l10.5 5.2M820.5 291.2l8.7 7.9M833.7 313.5l-7.9-3M833.7 313.5l-1.7-2.7M825.9 310.6l3.1-.8M832 310.8l2.5-11.4M829 309.8l5.5-10.4M821.6 299.6l2.7 8.1M821.6 299.6l-1 3M824.3 307.5l-2.5-1.9M820.6 302.6l-10.4 5.2M821.8 305.6l-11.6 2.2M697.5 166.2l8.5.3M697.5 166.2l2.4 2M705.9 166.5l-2.7 1.7M699.9 168.2l1.2 11.6M703.2 168.2l-2.1 11.6M714.7 176.2l5.6 6.4M714.7 176.2l.3 3.1M720.3 182.4l-3.1-.7M715 179.3l-7.6 8.9M717.2 181.7l-9.8 6.5M687.7 180.9l4.9-7M687.7 180.9l3-1M692.5 174v3.2M690.7 179.9l10.5 5.2M692.5 177.2l8.7 7.9M705.7 199.5l-7.9-3M705.7 199.5l-1.7-2.7M697.9 196.6l3.1-.8M704 196.8l2.5-11.4M701 195.8l5.5-10.4M693.6 185.6l2.7 8.1M693.6 185.6l-1 3M696.3 193.5l-2.5-1.9M692.6 188.6l-10.4 5.2M693.8 191.6l-11.6 2.2M717.5 195.2l8.5.3M717.5 195.2l2.4 2M725.9 195.5l-2.7 1.7M719.9 197.2l1.2 11.6M723.2 197.2l-2.1 11.6M734.7 205.2l5.6 6.4M734.7 205.2l.3 3.1M740.3 211.4l-3.1-.7M735 208.3l-7.6 8.9M737.2 210.7l-9.8 6.5M707.7 209.9l4.9-7M707.7 209.9l3-1M712.5 203v3.2M710.7 208.9l10.5 5.2M712.5 206.2l8.7 7.9M725.7 228.5l-7.9-3M725.7 228.5l-1.7-2.7M717.9 225.6l3.1-.8M724 225.8l2.5-11.4M721 224.8l5.5-10.4M713.6 214.6l2.7 8.1M713.6 214.6l-1 3M716.3 222.5l-2.5-1.9M712.6 217.6l-10.4 5.2M713.8 220.6l-11.6 2.2"/></g><path class="st1" d="M665 527v129M728 518v139M725 518v139M711 514v143M694 510v147M695 510v147M680 521v136"/></g></g></svg>